<svg xmlns="http://www.w3.org/2000/svg" xmlns:xlink="http://www.w3.org/1999/xlink" width="1080" zoomAndPan="magnify" viewBox="0 0 810 1012.49997" height="1350" preserveAspectRatio="xMidYMid meet" version="1.0"><defs><clipPath id="cdc8805470"><path d="M 0.199219 0 L 809.800781 0 L 809.800781 1012 L 0.199219 1012 Z M 0.199219 0 " clip-rule="nonzero"/></clipPath><clipPath id="150f784056"><path d="M 515.4375 700.019531 L 586.742188 700.019531 L 586.742188 780.257812 L 515.4375 780.257812 Z M 515.4375 700.019531 " clip-rule="nonzero"/></clipPath><clipPath id="048676b924"><path d="M 185.15625 231.625 L 440 231.625 L 440 415 L 185.15625 415 Z M 185.15625 231.625 " clip-rule="nonzero"/></clipPath><clipPath id="2f85dc05a2"><path d="M 508.226562 304.039062 L 624.839844 304.039062 L 624.839844 484 L 508.226562 484 Z M 508.226562 304.039062 " clip-rule="nonzero"/></clipPath></defs><g clip-path="url(#cdc8805470)"><path fill="#ffffff" d="M 0.199219 0 L 809.800781 0 L 809.800781 1012 L 0.199219 1012 Z M 0.199219 0 " fill-opacity="1" fill-rule="nonzero"/><path fill="#ffffff" d="M 0.199219 0 L 809.800781 0 L 809.800781 1012 L 0.199219 1012 Z M 0.199219 0 " fill-opacity="1" fill-rule="nonzero"/></g><path fill="#000000" d="M 420.300781 551.925781 C 420.300781 562.035156 424.238281 571.542969 431.386719 578.691406 C 438.535156 585.839844 448.039062 589.777344 458.148438 589.777344 L 533.789062 589.777344 C 536.738281 589.777344 539.128906 587.386719 539.128906 584.433594 C 539.128906 581.488281 536.738281 579.09375 533.789062 579.09375 L 458.148438 579.09375 C 443.167969 579.09375 430.980469 566.90625 430.980469 551.925781 C 430.980469 536.949219 443.167969 524.757812 458.148438 524.757812 L 458.152344 524.757812 C 467.039062 524.757812 475.398438 521.296875 481.683594 515.011719 C 487.96875 508.726562 491.429688 500.367188 491.429688 491.480469 C 491.429688 488.53125 489.039062 486.136719 486.089844 486.136719 C 483.136719 486.136719 480.746094 488.53125 480.746094 491.480469 C 480.746094 503.941406 470.609375 514.074219 458.148438 514.074219 C 448.039062 514.078125 438.535156 518.015625 431.386719 525.164062 C 424.238281 532.3125 420.300781 541.816406 420.300781 551.925781 " fill-opacity="1" fill-rule="nonzero"/><path fill="#000000" d="M 521.9375 487.238281 C 518.988281 487.238281 516.597656 489.632812 516.597656 492.578125 L 516.597656 519.417969 C 516.597656 524.480469 515.199219 529.417969 512.546875 533.695312 C 511.355469 535.621094 509.917969 537.398438 508.285156 538.976562 C 503.199219 543.882812 496.5 546.585938 489.429688 546.585938 C 486.480469 546.585938 484.089844 548.976562 484.089844 551.925781 C 484.089844 554.875 486.480469 557.265625 489.429688 557.265625 C 499.28125 557.265625 508.613281 553.5 515.699219 546.664062 C 517.976562 544.472656 519.96875 542 521.632812 539.320312 C 525.328125 533.351562 527.28125 526.46875 527.28125 519.417969 L 527.28125 492.578125 C 527.28125 489.632812 524.886719 487.238281 521.9375 487.238281 " fill-opacity="1" fill-rule="nonzero"/><path fill="#000000" d="M 550.257812 611.601562 L 443.582031 611.601562 C 440.632812 611.601562 438.242188 613.996094 438.242188 616.945312 C 438.242188 619.894531 440.632812 622.285156 443.582031 622.285156 L 550.257812 622.285156 C 560.367188 622.285156 569.871094 618.347656 577.019531 611.199219 C 584.171875 604.050781 588.105469 594.546875 588.105469 584.433594 C 588.105469 574.328125 584.171875 564.820312 577.019531 557.671875 C 569.871094 550.523438 560.367188 546.585938 550.257812 546.585938 L 529.015625 546.585938 C 526.066406 546.585938 523.675781 548.976562 523.675781 551.925781 C 523.675781 554.875 526.066406 557.265625 529.015625 557.265625 L 550.257812 557.265625 C 565.238281 557.265625 577.425781 569.457031 577.425781 584.433594 C 577.425781 599.414062 565.238281 611.601562 550.257812 611.601562 " fill-opacity="1" fill-rule="nonzero"/><path fill="#000000" d="M 597.558594 614.328125 C 594.824219 613.226562 591.710938 614.554688 590.613281 617.289062 C 589.511719 620.023438 590.835938 623.136719 593.574219 624.238281 C 603.917969 628.402344 610.601562 638.300781 610.601562 649.453125 C 610.601562 664.433594 598.414062 676.621094 583.433594 676.621094 L 474.59375 676.621094 C 471.644531 676.621094 469.253906 679.011719 469.253906 681.960938 C 469.253906 684.910156 471.644531 687.304688 474.59375 687.304688 L 583.433594 687.304688 C 593.546875 687.304688 603.050781 683.367188 610.199219 676.21875 C 617.347656 669.066406 621.285156 659.5625 621.285156 649.453125 C 621.285156 641.753906 618.984375 634.339844 614.636719 628.019531 C 610.386719 621.847656 604.484375 617.113281 597.558594 614.328125 " fill-opacity="1" fill-rule="nonzero"/><path fill="#000000" d="M 458.140625 654.792969 C 458.144531 654.792969 458.148438 654.792969 458.148438 654.792969 L 486.46875 654.792969 C 486.472656 654.792969 486.476562 654.792969 486.476562 654.792969 L 567.199219 654.792969 C 570.148438 654.792969 572.539062 652.402344 572.539062 649.453125 C 572.539062 646.503906 570.148438 644.113281 567.199219 644.113281 L 424.96875 644.113281 C 409.992188 644.113281 397.800781 631.925781 397.800781 616.945312 C 397.800781 606.183594 404.164062 596.421875 414.011719 592.074219 C 416.710938 590.882812 417.933594 587.730469 416.742188 585.03125 C 415.550781 582.335938 412.398438 581.113281 409.699219 582.304688 C 395.984375 588.355469 387.121094 601.953125 387.121094 616.945312 C 387.121094 627.054688 391.058594 636.558594 398.207031 643.707031 C 405.355469 650.855469 414.863281 654.792969 424.96875 654.792969 L 458.140625 654.792969 " fill-opacity="1" fill-rule="nonzero"/><g clip-path="url(#150f784056)"><path fill="#000000" d="M 578.554688 700.351562 C 575.71875 701.164062 574.078125 704.121094 574.894531 706.957031 C 575.589844 709.386719 575.945312 711.914062 575.945312 714.472656 C 575.945312 729.449219 563.757812 741.636719 548.777344 741.636719 C 539.886719 741.636719 531.53125 745.097656 525.242188 751.386719 C 518.957031 757.671875 515.496094 766.027344 515.496094 774.917969 C 515.496094 777.867188 517.886719 780.257812 520.835938 780.257812 C 523.785156 780.257812 526.179688 777.867188 526.179688 774.917969 C 526.179688 762.457031 536.316406 752.320312 548.777344 752.320312 C 558.886719 752.320312 568.390625 748.382812 575.539062 741.234375 C 582.6875 734.085938 586.625 724.578125 586.625 714.472656 C 586.625 710.917969 586.132812 707.398438 585.160156 704.007812 C 584.347656 701.175781 581.386719 699.535156 578.554688 700.351562 " fill-opacity="1" fill-rule="nonzero"/></g><path fill="#000000" d="M 489.507812 729.589844 C 486.785156 728.457031 483.65625 729.75 482.527344 732.472656 C 480.617188 737.074219 479.644531 741.957031 479.644531 746.976562 L 479.644531 773.816406 C 479.644531 776.769531 482.035156 779.15625 484.988281 779.15625 C 487.9375 779.15625 490.328125 776.769531 490.328125 773.816406 L 490.328125 746.976562 C 490.328125 743.371094 491.023438 739.867188 492.394531 736.570312 C 493.523438 733.84375 492.230469 730.71875 489.507812 729.589844 " fill-opacity="1" fill-rule="nonzero"/><path fill="#000000" d="M 522.835938 714.472656 C 522.835938 711.519531 520.445312 709.128906 517.496094 709.128906 L 456.675781 709.128906 C 456.671875 709.128906 456.671875 709.128906 456.667969 709.128906 C 441.6875 709.128906 429.5 696.941406 429.5 681.960938 C 429.5 679.441406 429.84375 676.949219 430.523438 674.554688 C 431.324219 671.714844 429.675781 668.765625 426.835938 667.960938 C 423.996094 667.15625 421.042969 668.808594 420.242188 671.648438 C 419.296875 674.988281 418.820312 678.460938 418.820312 681.960938 C 418.820312 692.070312 422.757812 701.578125 429.90625 708.722656 C 437.050781 715.871094 446.554688 719.808594 456.660156 719.8125 C 456.664062 719.8125 456.667969 719.8125 456.667969 719.8125 L 517.496094 719.8125 C 520.445312 719.8125 522.835938 717.417969 522.835938 714.472656 " fill-opacity="1" fill-rule="nonzero"/><g clip-path="url(#048676b924)"><path fill="#000000" d="M 411.828125 403.871094 C 413.964844 402.390625 416.003906 400.769531 417.890625 399.054688 C 430.550781 387.523438 437.808594 370.738281 438.878906 350.519531 C 439.460938 343.179688 438.964844 335.386719 437.402344 327.359375 C 435.714844 318.699219 432.851562 310.15625 428.890625 301.972656 C 424.546875 292.996094 418.949219 284.613281 412.257812 277.066406 C 406.898438 271.019531 400.640625 265.792969 393.964844 260.894531 C 390.003906 257.804688 381.257812 252.683594 374.800781 249.609375 C 363.921875 244.320312 352.859375 239.894531 341.402344 236.964844 C 327.8125 233.496094 313.960938 231.734375 300.226562 231.734375 C 299.34375 231.734375 298.453125 231.742188 297.574219 231.757812 C 283.738281 231.984375 270.25 233.992188 257.488281 237.71875 C 245.097656 241.335938 233.742188 246.464844 223.738281 252.96875 C 211.851562 260.6875 202.449219 269.929688 195.78125 280.429688 C 188.730469 291.539062 185.15625 303.421875 185.15625 315.75 C 185.15625 329.832031 189.269531 343.21875 197.050781 354.46875 C 200.796875 359.882812 205.28125 364.617188 210.378906 368.539062 C 215.550781 372.515625 221.234375 375.5625 227.273438 377.59375 C 227.789062 377.769531 228.324219 377.859375 228.859375 377.859375 C 231.183594 377.859375 233.207031 376.261719 233.890625 373.894531 C 234.738281 370.957031 233.191406 367.8125 230.445312 366.886719 C 214.832031 361.632812 202.890625 348.757812 198.019531 332.136719 C 199.484375 333.320312 201.054688 334.34375 202.714844 335.1875 C 206.394531 337.054688 210.367188 338.003906 214.53125 338.003906 C 217.433594 338.003906 219.792969 335.484375 219.792969 332.390625 C 219.792969 329.296875 217.433594 326.777344 214.53125 326.777344 C 209.417969 326.777344 204.8125 324.480469 201.566406 320.308594 C 197.996094 315.726562 196.015625 309.230469 197.457031 302.585938 C 199.652344 294.492188 203.800781 286.738281 209.785156 279.542969 L 210.335938 278.976562 C 214.371094 275.484375 218.851562 273.726562 223.125 273.726562 C 224.140625 273.726562 225.164062 273.832031 226.164062 274.035156 C 231.058594 275.023438 235.371094 278.402344 237.996094 283.304688 C 238.933594 285.046875 240.683594 286.132812 242.570312 286.132812 C 243.503906 286.132812 244.421875 285.863281 245.230469 285.359375 C 247.703125 283.808594 248.558594 280.386719 247.132812 277.726562 C 246.65625 276.84375 246.136719 275.972656 245.578125 275.132812 C 247.777344 274.496094 250.113281 274.609375 252.296875 275.46875 C 252.882812 275.699219 253.496094 275.816406 254.113281 275.816406 C 256.332031 275.816406 258.320312 274.320312 259.070312 272.09375 C 260.039062 269.199219 258.632812 265.988281 255.929688 264.929688 C 253.535156 263.988281 251.019531 263.511719 248.457031 263.511719 C 244.957031 263.511719 241.480469 264.421875 238.394531 266.144531 C 238.03125 266.347656 237.691406 266.589844 237.386719 266.871094 C 234.609375 265.027344 231.605469 263.75 228.4375 263.066406 C 228.695312 262.894531 228.957031 262.722656 229.214844 262.558594 C 241.808594 254.375 257.191406 248.5 273.953125 245.476562 C 276.175781 245.074219 279.585938 245.625 280.433594 245.890625 C 283.507812 246.851562 286.074219 249.363281 287.511719 252.472656 C 288.40625 254.398438 290.214844 255.59375 292.234375 255.59375 C 293.054688 255.59375 293.875 255.386719 294.613281 254.988281 C 297.171875 253.601562 298.222656 250.238281 296.949219 247.492188 C 296.25 245.980469 295.398438 244.554688 294.410156 243.238281 C 296.417969 243.160156 298.441406 243.121094 300.445312 243.121094 C 307.742188 243.121094 315.132812 243.644531 322.4375 244.691406 C 319.070312 248 316.570312 252.21875 315.113281 257.046875 C 314.992188 257.457031 314.3125 259.136719 314.101562 259.578125 C 312.625 262.660156 309.996094 264.792969 306.910156 265.710938 C 304.132812 266.539062 302.492188 269.628906 303.25 272.597656 C 303.871094 275.035156 305.960938 276.734375 308.324219 276.734375 C 308.804688 276.734375 309.28125 276.664062 309.746094 276.527344 C 312.347656 275.75 314.839844 274.425781 317.023438 272.667969 C 318.042969 274.757812 319.339844 276.652344 320.882812 278.320312 C 321.878906 279.394531 323.207031 279.988281 324.625 279.988281 C 326.046875 279.988281 327.378906 279.394531 328.375 278.3125 C 330.382812 276.136719 330.382812 272.597656 328.367188 270.425781 C 326.082031 267.960938 324.886719 265.003906 325.011719 261.515625 C 325.015625 261.417969 325.125 260.507812 325.183594 260.328125 C 327.390625 253.230469 333.074219 248.6875 339.835938 248.6875 C 340.835938 248.6875 341.859375 248.792969 342.867188 249 C 356.066406 252.691406 368.96875 258.125 381.21875 265.144531 C 375.6875 266.359375 370.4375 269.304688 366.433594 273.457031 C 363.417969 269.835938 359.523438 267.308594 355.117188 266.125 C 354.691406 266.007812 354.257812 265.949219 353.824219 265.949219 C 351.398438 265.949219 349.296875 267.710938 348.71875 270.226562 C 348.027344 273.214844 349.742188 276.257812 352.539062 277.011719 C 359.03125 278.753906 362.992188 285.910156 361.371094 292.960938 C 360.683594 295.953125 362.398438 298.996094 365.195312 299.746094 C 365.617188 299.859375 366.050781 299.917969 366.484375 299.917969 C 368.914062 299.917969 371.011719 298.160156 371.59375 295.640625 C 372.460938 291.871094 372.476562 287.90625 371.640625 284.144531 C 371.75 284.011719 371.847656 283.882812 371.941406 283.746094 C 374.867188 279.476562 379.695312 276.535156 384.859375 275.875 C 385.59375 275.78125 386.339844 275.734375 387.078125 275.734375 C 391.851562 275.734375 396.675781 277.195312 400.785156 280.917969 C 401.003906 281.117188 401.875 281.898438 402.433594 282.46875 C 408.070312 288.457031 412.921875 295.054688 416.882812 302.113281 C 415.097656 301.699219 413.273438 301.492188 411.429688 301.492188 C 407.90625 301.492188 404.4375 302.277344 401.394531 303.769531 C 398.785156 305.046875 397.613281 308.363281 398.789062 311.164062 C 399.636719 313.179688 401.523438 314.484375 403.59375 314.484375 C 404.355469 314.484375 405.09375 314.3125 405.789062 313.96875 C 407.484375 313.140625 409.433594 312.703125 411.429688 312.703125 C 413.378906 312.703125 415.359375 313.125 417.152344 313.921875 C 419.910156 315.144531 423.652344 317.890625 425.820312 324.015625 C 425.820312 324.019531 425.824219 324.023438 425.824219 324.027344 C 428.148438 332.789062 429.03125 341.652344 428.382812 349.664062 C 428.382812 349.691406 428.382812 349.71875 428.378906 349.753906 C 428.375 349.777344 428.375 349.800781 428.371094 349.828125 C 427.078125 374.644531 415.632812 387.710938 406.222656 394.308594 C 404.132812 395.113281 402.046875 395.523438 400.027344 395.523438 C 396.964844 395.523438 394.136719 394.601562 391.632812 392.78125 C 387.460938 389.75 384.835938 384.664062 384.78125 379.503906 C 384.75 376.445312 382.386719 373.953125 379.519531 373.953125 L 379.457031 373.953125 C 376.558594 373.988281 374.222656 376.539062 374.257812 379.632812 C 374.269531 380.863281 374.367188 382.105469 374.550781 383.347656 C 372.503906 383.296875 370.476562 383.554688 368.519531 384.109375 C 365.730469 384.898438 364.054688 387.964844 364.777344 390.945312 C 365.378906 393.421875 367.472656 395.152344 369.867188 395.152344 C 370.324219 395.152344 370.777344 395.089844 371.222656 394.960938 C 372.175781 394.691406 373.152344 394.554688 374.117188 394.554688 C 376.160156 394.554688 378.175781 395.175781 379.957031 396.347656 C 381.613281 398.570312 383.546875 400.492188 385.707031 402.0625 C 385.921875 402.21875 386.140625 402.371094 386.363281 402.523438 C 383.230469 403.09375 380.039062 403.378906 376.84375 403.378906 C 355.941406 403.378906 337.273438 389.042969 330.386719 367.699219 C 329.65625 365.4375 327.65625 363.914062 325.410156 363.914062 C 324.8125 363.914062 324.222656 364.019531 323.65625 364.234375 C 320.941406 365.257812 319.496094 368.453125 320.433594 371.359375 C 322.441406 377.582031 325.324219 383.429688 329 388.726562 C 332.632812 393.972656 336.964844 398.574219 341.878906 402.410156 C 352.097656 410.390625 364.1875 414.609375 376.84375 414.609375 C 389.476562 414.609375 401.484375 410.957031 411.570312 404.050781 C 411.660156 403.992188 411.742188 403.933594 411.828125 403.871094 " fill-opacity="1" fill-rule="nonzero"/></g><path fill="#000000" d="M 370.847656 336.839844 L 370.792969 336.894531 C 370.707031 336.984375 370.617188 337.078125 370.53125 337.179688 C 367.039062 340.894531 362.410156 343.011719 357.507812 343.140625 C 354.609375 343.214844 352.308594 345.792969 352.375 348.886719 C 352.441406 351.960938 354.753906 354.367188 357.632812 354.367188 C 357.675781 354.367188 357.71875 354.367188 357.765625 354.367188 C 358.242188 354.351562 358.730469 354.328125 359.21875 354.289062 C 359.023438 355.4375 358.90625 356.601562 358.867188 357.761719 C 358.773438 360.851562 361.050781 363.453125 363.949219 363.558594 C 364.011719 363.5625 364.070312 363.5625 364.128906 363.5625 C 366.984375 363.5625 369.292969 361.179688 369.386719 358.132812 C 369.496094 354.648438 370.898438 351.472656 373.335938 349.195312 C 373.378906 349.15625 373.421875 349.117188 373.464844 349.074219 C 373.46875 349.070312 373.476562 349.066406 373.480469 349.0625 C 376.257812 352.472656 379.519531 355.304688 383.183594 357.488281 C 388.507812 360.664062 394.546875 362.339844 400.660156 362.339844 C 400.949219 362.339844 401.238281 362.335938 401.527344 362.328125 C 404.429688 362.253906 406.730469 359.675781 406.660156 356.582031 C 406.59375 353.507812 404.285156 351.101562 401.402344 351.101562 C 401.359375 351.101562 401.316406 351.101562 401.273438 351.101562 C 401.070312 351.109375 400.871094 351.109375 400.667969 351.109375 C 393.203125 351.109375 385.925781 347.4375 381.078125 341.257812 C 385.011719 335.507812 387.003906 328.679688 386.84375 321.472656 C 386.777344 318.449219 384.414062 315.988281 381.582031 315.988281 C 381.539062 315.988281 381.496094 315.988281 381.453125 315.992188 C 378.554688 316.066406 376.253906 318.644531 376.320312 321.738281 C 376.445312 327.335938 374.546875 332.644531 370.980469 336.691406 C 370.9375 336.738281 370.890625 336.789062 370.847656 336.839844 " fill-opacity="1" fill-rule="nonzero"/><path fill="#000000" d="M 247.867188 304.03125 C 246.820312 306.886719 248.144531 310.144531 250.8125 311.28125 C 251.441406 311.550781 252.097656 311.6875 252.769531 311.6875 C 254.953125 311.6875 256.878906 310.285156 257.671875 308.113281 C 260.5 300.382812 266.519531 294.347656 273.859375 291.839844 C 277.210938 297.902344 282.371094 302.648438 288.457031 305.25 C 289.085938 305.515625 289.742188 305.652344 290.414062 305.652344 C 292.597656 305.652344 294.523438 304.25 295.316406 302.078125 C 296.363281 299.222656 295.042969 295.964844 292.375 294.824219 C 282.460938 290.589844 277.589844 278.40625 281.519531 267.664062 C 282.566406 264.804688 281.246094 261.550781 278.574219 260.410156 C 277.949219 260.140625 277.289062 260.007812 276.621094 260.007812 C 274.433594 260.007812 272.507812 261.410156 271.714844 263.578125 C 269.644531 269.242188 269.109375 275.351562 270.160156 281.308594 C 266.140625 282.742188 262.425781 284.898438 259.109375 287.714844 C 254.105469 291.964844 250.21875 297.605469 247.867188 304.03125 " fill-opacity="1" fill-rule="nonzero"/><path fill="#000000" d="M 333.574219 299.25 C 330.652344 299.09375 328.195312 301.5 328.058594 304.589844 C 327.6875 312.914062 323.785156 320.738281 317.570312 325.6875 C 312.582031 321.117188 306.28125 318.425781 299.742188 318.085938 C 296.816406 317.933594 294.367188 320.335938 294.230469 323.429688 C 294.089844 326.515625 296.335938 329.152344 299.230469 329.304688 C 309.851562 329.855469 318.074219 339.675781 317.5625 351.191406 C 317.425781 354.28125 319.667969 356.917969 322.570312 357.066406 C 322.65625 357.070312 322.738281 357.074219 322.824219 357.074219 C 325.636719 357.074219 327.945312 354.722656 328.078125 351.726562 C 328.347656 345.640625 327.023438 339.660156 324.246094 334.378906 C 327.632812 331.621094 330.414062 328.222656 332.8125 324.460938 C 333.210938 323.832031 333.730469 323.171875 334.425781 322.75 C 336.019531 321.78125 337.789062 321.378906 339.582031 321.378906 C 340.890625 321.378906 342.191406 321.628906 343.453125 322.121094 C 344.035156 322.351562 344.648438 322.46875 345.265625 322.46875 C 347.484375 322.46875 349.476562 320.972656 350.222656 318.746094 C 351.191406 315.855469 349.785156 312.640625 347.082031 311.582031 C 344.199219 310.453125 341.128906 309.992188 338.03125 310.230469 C 338.316406 308.542969 338.496094 306.832031 338.574219 305.125 C 338.710938 302.035156 336.46875 299.398438 333.574219 299.25 " fill-opacity="1" fill-rule="nonzero"/><path fill="#000000" d="M 246.558594 338.410156 C 246.957031 335.355469 244.953125 332.515625 242.089844 332.078125 C 241.84375 332.039062 241.589844 332.019531 241.34375 332.019531 C 238.734375 332.019531 236.496094 334.101562 236.132812 336.863281 C 235.757812 339.738281 235.570312 342.679688 235.570312 345.601562 C 235.570312 353.984375 237.089844 362.117188 240.089844 369.777344 C 242.984375 377.179688 247.128906 383.828125 252.414062 389.53125 C 257.699219 395.246094 263.855469 399.730469 270.71875 402.867188 C 277.828125 406.117188 285.378906 407.765625 293.160156 407.765625 C 303.121094 407.765625 312.945312 404.976562 321.558594 399.695312 C 324.046875 398.167969 324.929688 394.753906 323.53125 392.082031 C 322.597656 390.308594 320.839844 389.210938 318.933594 389.210938 C 318.015625 389.210938 317.113281 389.46875 316.3125 389.957031 C 309.292969 394.261719 301.285156 396.535156 293.160156 396.535156 C 276.046875 396.535156 260.113281 386.230469 251.886719 370.066406 C 254.945312 371.421875 258.25 372.128906 261.574219 372.128906 C 264.472656 372.128906 266.835938 369.609375 266.835938 366.511719 C 266.835938 363.417969 264.472656 360.898438 261.574219 360.898438 C 253.320312 360.898438 246.105469 353.609375 246.105469 344.652344 C 246.105469 343.882812 246.105469 343.195312 246.183594 342.445312 C 246.261719 341.082031 246.386719 339.726562 246.558594 338.410156 " fill-opacity="1" fill-rule="nonzero"/><path fill="#000000" d="M 294.222656 358.488281 C 294.222656 363.082031 292.507812 367.328125 289.390625 370.441406 C 287.300781 372.53125 287.167969 376.066406 289.101562 378.324219 C 290.09375 379.488281 291.511719 380.152344 292.988281 380.152344 C 294.332031 380.152344 295.609375 379.617188 296.585938 378.636719 C 301.773438 373.453125 304.746094 366.109375 304.746094 358.488281 C 304.746094 355.394531 302.386719 352.875 299.484375 352.875 C 296.582031 352.875 294.222656 355.394531 294.222656 358.488281 " fill-opacity="1" fill-rule="nonzero"/><path fill="#000000" d="M 214.613281 293.449219 C 214.613281 296.9375 213.3125 300.164062 210.945312 302.527344 C 208.851562 304.617188 208.722656 308.15625 210.65625 310.414062 C 211.648438 311.574219 213.066406 312.242188 214.542969 312.242188 C 215.882812 312.242188 217.160156 311.703125 218.140625 310.722656 C 222.589844 306.28125 225.140625 299.980469 225.140625 293.449219 C 225.140625 290.351562 222.777344 287.832031 219.875 287.832031 C 216.976562 287.832031 214.613281 290.351562 214.613281 293.449219 " fill-opacity="1" fill-rule="nonzero"/><path fill="#000000" d="M 269.023438 323.851562 C 268.539062 323.699219 268.039062 323.625 267.535156 323.625 C 265.203125 323.625 263.121094 325.300781 262.480469 327.695312 C 261.6875 330.652344 263.289062 333.761719 266.054688 334.625 C 266.769531 334.851562 267.347656 335.375 267.6875 336.109375 C 268.578125 338.035156 270.386719 339.234375 272.40625 339.234375 C 273.226562 339.234375 274.050781 339.023438 274.785156 338.625 C 277.347656 337.238281 278.394531 333.875 277.121094 331.128906 C 275.488281 327.605469 272.535156 324.953125 269.023438 323.851562 " fill-opacity="1" fill-rule="nonzero"/><path fill="#000000" d="M 337.601562 438.398438 C 340.910156 428.984375 344.039062 420.085938 344.105469 412.4375 C 344.128906 409.453125 341.730469 407.015625 338.746094 406.988281 C 338.730469 406.988281 338.714844 406.988281 338.699219 406.988281 C 335.738281 406.988281 333.324219 409.378906 333.296875 412.347656 C 333.25 418.199219 330.277344 426.644531 327.40625 434.8125 C 323.128906 446.972656 318.703125 459.550781 321.472656 469.183594 C 322.152344 471.554688 324.3125 473.097656 326.660156 473.097656 C 327.15625 473.097656 327.65625 473.03125 328.15625 472.886719 C 331.023438 472.0625 332.683594 469.070312 331.859375 466.203125 C 330.046875 459.882812 334.058594 448.46875 337.601562 438.398438 " fill-opacity="1" fill-rule="nonzero"/><path fill="#000000" d="M 316.28125 430.972656 C 316.785156 424.039062 314.394531 418.617188 309.1875 414.867188 C 306.765625 413.121094 303.390625 413.671875 301.644531 416.089844 C 299.898438 418.511719 300.445312 421.886719 302.867188 423.636719 C 307.203125 426.757812 305.855469 432.214844 301.746094 443.914062 C 299.15625 451.28125 296.222656 459.632812 296.578125 467.925781 C 296.703125 470.828125 299.097656 473.097656 301.972656 473.097656 C 302.054688 473.097656 302.132812 473.09375 302.210938 473.089844 C 305.195312 472.960938 307.507812 470.441406 307.378906 467.457031 C 307.109375 461.246094 309.566406 454.257812 311.941406 447.496094 C 313.976562 441.699219 315.902344 436.222656 316.28125 430.972656 " fill-opacity="1" fill-rule="nonzero"/><g clip-path="url(#2f85dc05a2)"><path fill="#000000" d="M 624.3125 421.859375 C 623.429688 420.039062 621.585938 418.882812 619.558594 418.882812 L 600.988281 418.882812 L 600.988281 391.582031 C 600.988281 379.777344 598.675781 368.324219 594.113281 357.535156 C 589.707031 347.121094 583.402344 337.765625 575.371094 329.738281 C 567.339844 321.707031 557.984375 315.402344 547.570312 310.992188 C 536.785156 306.433594 525.332031 304.117188 513.523438 304.117188 C 510.609375 304.117188 508.246094 306.484375 508.246094 309.398438 C 508.246094 312.3125 510.609375 314.675781 513.523438 314.675781 C 555.929688 314.675781 590.429688 349.179688 590.429688 391.582031 L 590.429688 418.882812 L 576.484375 418.882812 C 573.566406 418.882812 571.203125 421.246094 571.203125 424.160156 C 571.203125 427.078125 573.566406 429.441406 576.484375 429.441406 L 608.652344 429.441406 L 576.484375 470.117188 L 544.3125 429.441406 L 557.257812 429.441406 C 560.171875 429.441406 562.535156 427.078125 562.535156 424.160156 L 562.535156 391.582031 C 562.535156 378.660156 557.503906 366.511719 548.367188 357.375 C 539.230469 348.238281 527.082031 343.203125 514.15625 343.203125 C 511.242188 343.203125 508.878906 345.570312 508.878906 348.484375 C 508.878906 351.398438 511.242188 353.761719 514.15625 353.761719 C 535.011719 353.761719 551.976562 370.730469 551.976562 391.582031 L 551.976562 418.882812 L 533.40625 418.882812 C 531.382812 418.882812 529.535156 420.039062 528.652344 421.859375 C 527.773438 423.683594 528.007812 425.847656 529.265625 427.4375 L 572.34375 481.902344 C 573.34375 483.167969 574.867188 483.90625 576.484375 483.90625 C 578.097656 483.90625 579.625 483.167969 580.625 481.902344 L 623.703125 427.4375 C 624.957031 425.847656 625.195312 423.683594 624.3125 421.859375 " fill-opacity="1" fill-rule="nonzero"/></g><path fill="#000000" d="M 482.558594 314.675781 L 490.148438 314.675781 C 493.066406 314.675781 495.429688 312.3125 495.429688 309.398438 C 495.429688 306.484375 493.066406 304.117188 490.148438 304.117188 L 482.558594 304.117188 C 479.644531 304.117188 477.28125 306.484375 477.28125 309.398438 C 477.28125 312.3125 479.644531 314.675781 482.558594 314.675781 " fill-opacity="1" fill-rule="nonzero"/><path fill="#000000" d="M 315.199219 661.179688 C 272.792969 661.179688 238.292969 626.683594 238.292969 584.277344 L 238.292969 556.980469 L 252.238281 556.980469 C 255.15625 556.980469 257.519531 554.617188 257.519531 551.699219 C 257.519531 548.78125 255.15625 546.417969 252.238281 546.417969 L 220.070312 546.417969 L 252.238281 505.746094 L 284.410156 546.417969 L 271.464844 546.417969 C 268.550781 546.417969 266.1875 548.78125 266.1875 551.699219 L 266.1875 584.277344 C 266.1875 597.199219 271.21875 609.347656 280.355469 618.484375 C 289.492188 627.625 301.644531 632.65625 314.566406 632.65625 C 317.480469 632.65625 319.84375 630.292969 319.84375 627.375 C 319.84375 624.460938 317.480469 622.097656 314.566406 622.097656 C 293.710938 622.097656 276.746094 605.132812 276.746094 584.277344 L 276.746094 556.980469 L 295.316406 556.980469 C 297.34375 556.980469 299.1875 555.820312 300.070312 554 C 300.953125 552.179688 300.714844 550.011719 299.457031 548.425781 L 256.378906 493.957031 C 255.378906 492.691406 253.855469 491.953125 252.238281 491.953125 C 250.625 491.953125 249.101562 492.691406 248.097656 493.957031 L 205.019531 548.425781 C 203.765625 550.011719 203.527344 552.179688 204.410156 554 C 205.292969 555.820312 207.136719 556.980469 209.164062 556.980469 L 227.734375 556.980469 L 227.734375 584.277344 C 227.734375 596.082031 230.046875 607.535156 234.609375 618.324219 C 239.015625 628.738281 245.320312 638.09375 253.351562 646.125 C 261.382812 654.15625 270.738281 660.460938 281.152344 664.867188 C 291.9375 669.425781 303.394531 671.742188 315.199219 671.742188 C 318.113281 671.742188 320.480469 669.375 320.480469 666.460938 C 320.480469 663.546875 318.113281 661.179688 315.199219 661.179688 " fill-opacity="1" fill-rule="nonzero"/><path fill="#000000" d="M 346.164062 661.179688 L 338.574219 661.179688 C 335.660156 661.179688 333.292969 663.546875 333.292969 666.460938 C 333.292969 669.375 335.660156 671.742188 338.574219 671.742188 L 346.164062 671.742188 C 349.078125 671.742188 351.441406 669.375 351.441406 666.460938 C 351.441406 663.546875 349.078125 661.179688 346.164062 661.179688 " fill-opacity="1" fill-rule="nonzero"/></svg>