<svg xmlns="http://www.w3.org/2000/svg" xmlns:xlink="http://www.w3.org/1999/xlink" width="1080" zoomAndPan="magnify" viewBox="0 0 810 1012.49997" height="1350" preserveAspectRatio="xMidYMid meet" version="1.0"><defs><clipPath id="3845685b67"><path d="M 0.199219 0 L 809.800781 0 L 809.800781 1012 L 0.199219 1012 Z M 0.199219 0 " clip-rule="nonzero"/></clipPath><clipPath id="74b7890a62"><path d="M 122.457031 283 L 394 283 L 394 730 L 122.457031 730 Z M 122.457031 283 " clip-rule="nonzero"/></clipPath></defs><g clip-path="url(#3845685b67)"><path fill="#ffffff" d="M 0.199219 0 L 809.800781 0 L 809.800781 1012 L 0.199219 1012 Z M 0.199219 0 " fill-opacity="1" fill-rule="nonzero"/><path fill="#ffffff" d="M 0.199219 0 L 809.800781 0 L 809.800781 1012 L 0.199219 1012 Z M 0.199219 0 " fill-opacity="1" fill-rule="nonzero"/></g><g clip-path="url(#74b7890a62)"><path fill="#000000" d="M 348.597656 729.007812 C 342.570312 729.007812 336.78125 727.835938 331.226562 725.503906 C 289.019531 707.789062 247.339844 679.855469 207.394531 642.492188 C 152.355469 591.082031 122.648438 504.597656 122.648438 449.335938 C 122.648438 404.652344 136.71875 363.242188 162.253906 332.847656 C 188.667969 301.3125 225.773438 283.957031 266.660156 283.957031 C 311.597656 283.957031 354.238281 304.808594 383.613281 341.152344 C 385.191406 343.121094 386.589844 345.207031 387.8125 347.414062 C 389.035156 349.621094 390.0625 351.914062 390.894531 354.296875 C 391.726562 356.675781 392.351562 359.109375 392.769531 361.597656 C 393.1875 364.082031 393.390625 366.589844 393.382812 369.109375 L 393.382812 684.195312 C 393.382812 685.664062 393.308594 687.125 393.164062 688.585938 C 393.015625 690.042969 392.800781 691.492188 392.511719 692.929688 C 392.226562 694.367188 391.867188 695.785156 391.441406 697.1875 C 391.015625 698.589844 390.523438 699.96875 389.960938 701.324219 C 389.398438 702.679688 388.769531 704 388.078125 705.292969 C 387.386719 706.585938 386.632812 707.84375 385.820312 709.0625 C 385.003906 710.28125 384.132812 711.457031 383.203125 712.589844 C 382.273438 713.722656 381.289062 714.808594 380.253906 715.847656 C 379.214844 716.882812 378.128906 717.867188 376.996094 718.796875 C 375.863281 719.730469 374.6875 720.601562 373.46875 721.417969 C 372.25 722.234375 370.996094 722.988281 369.703125 723.683594 C 368.410156 724.375 367.085938 725.003906 365.730469 725.566406 C 364.375 726.128906 363 726.625 361.59375 727.050781 C 360.191406 727.480469 358.773438 727.839844 357.332031 728.128906 C 355.894531 728.417969 354.445312 728.636719 352.988281 728.78125 C 351.527344 728.929688 350.0625 729.003906 348.597656 729.007812 Z M 266.660156 297.707031 C 192.375 297.707031 136.339844 362.898438 136.339844 449.335938 C 136.339844 501.710938 164.511719 583.679688 216.738281 632.441406 C 265.066406 677.585938 308.570312 701.0625 336.546875 712.820312 C 337.132812 713.066406 337.730469 713.292969 338.332031 713.503906 C 338.933594 713.710938 339.542969 713.902344 340.15625 714.074219 C 340.769531 714.25 341.386719 714.402344 342.011719 714.535156 C 342.632812 714.671875 343.261719 714.785156 343.890625 714.882812 C 344.519531 714.976562 345.152344 715.054688 345.789062 715.113281 C 346.425781 715.167969 347.058594 715.207031 347.699219 715.222656 C 348.335938 715.242188 348.972656 715.238281 349.609375 715.21875 C 350.246094 715.199219 350.882812 715.15625 351.515625 715.097656 C 352.152344 715.035156 352.785156 714.957031 353.414062 714.859375 C 354.042969 714.757812 354.671875 714.640625 355.292969 714.503906 C 355.914062 714.363281 356.53125 714.207031 357.144531 714.03125 C 357.757812 713.855469 358.367188 713.664062 358.96875 713.449219 C 359.566406 713.238281 360.160156 713.007812 360.75 712.757812 C 361.335938 712.507812 361.914062 712.242188 362.484375 711.957031 C 363.054688 711.671875 363.613281 711.367188 364.167969 711.050781 C 364.71875 710.730469 365.261719 710.394531 365.792969 710.039062 C 366.320312 709.6875 366.839844 709.320312 367.351562 708.933594 C 367.859375 708.550781 368.355469 708.152344 368.839844 707.734375 C 369.320312 707.320312 369.792969 706.890625 370.25 706.445312 C 370.707031 706.003906 371.152344 705.546875 371.578125 705.074219 C 372.007812 704.601562 372.421875 704.121094 372.824219 703.621094 C 373.222656 703.125 373.605469 702.617188 373.972656 702.097656 C 374.339844 701.578125 374.695312 701.046875 375.027344 700.503906 C 375.363281 699.960938 375.683594 699.410156 375.984375 698.847656 C 376.285156 698.289062 376.570312 697.71875 376.835938 697.140625 C 377.101562 696.558594 377.351562 695.972656 377.582031 695.378906 C 377.8125 694.785156 378.023438 694.183594 378.214844 693.578125 C 378.410156 692.96875 378.585938 692.359375 378.738281 691.738281 C 378.894531 691.121094 379.03125 690.5 379.148438 689.875 C 379.265625 689.246094 379.363281 688.617188 379.445312 687.984375 C 379.523438 687.355469 379.582031 686.71875 379.621094 686.082031 C 379.660156 685.449219 379.679688 684.8125 379.679688 684.175781 L 379.679688 369.085938 C 379.699219 365.582031 379.132812 362.171875 377.980469 358.859375 C 376.828125 355.546875 375.160156 352.523438 372.972656 349.78125 C 346.15625 316.703125 307.421875 297.707031 266.660156 297.707031 Z M 386.539062 684.152344 Z M 386.539062 684.152344 " fill-opacity="1" fill-rule="nonzero"/></g><path fill="#000000" d="M 675.8125 461.480469 C 681.625 447.207031 684.171875 425.046875 681.878906 406.933594 C 681.234375 401.558594 680.09375 396.292969 678.445312 391.136719 C 676.800781 385.980469 674.679688 381.027344 672.089844 376.273438 C 669.5 371.519531 666.480469 367.054688 663.039062 362.878906 C 659.597656 358.699219 655.789062 354.882812 651.621094 351.429688 C 651.414062 349.625 651.121094 347.832031 650.742188 346.054688 C 650.363281 344.277344 649.898438 342.523438 649.347656 340.789062 C 648.792969 339.058594 648.160156 337.355469 647.441406 335.6875 C 646.722656 334.015625 645.925781 332.386719 645.046875 330.792969 C 644.171875 329.203125 643.21875 327.65625 642.1875 326.15625 C 641.160156 324.660156 640.058594 323.214844 638.890625 321.820312 C 637.71875 320.429688 636.484375 319.097656 635.183594 317.828125 C 633.882812 316.558594 632.523438 315.351562 631.105469 314.214844 C 629.6875 313.078125 628.214844 312.011719 626.695312 311.015625 C 625.171875 310.023438 623.605469 309.105469 621.992188 308.265625 C 620.378906 307.421875 618.730469 306.664062 617.042969 305.984375 C 615.355469 305.300781 613.640625 304.707031 611.894531 304.195312 C 610.148438 303.683594 608.382812 303.257812 606.597656 302.917969 C 604.808594 302.578125 603.007812 302.324219 601.199219 302.160156 C 599.386719 301.996094 597.570312 301.921875 595.753906 301.9375 C 593.933594 301.949219 592.121094 302.050781 590.3125 302.242188 C 578.9375 294.324219 564.878906 287.910156 553.835938 285.675781 C 532.730469 281.402344 501.886719 284.449219 482.039062 306.230469 C 480.90625 306.089844 479.769531 305.984375 478.628906 305.914062 C 477.488281 305.84375 476.347656 305.808594 475.207031 305.8125 C 474.0625 305.816406 472.921875 305.855469 471.785156 305.929688 C 470.644531 306.003906 469.507812 306.113281 468.375 306.261719 C 467.242188 306.410156 466.117188 306.589844 464.996094 306.808594 C 463.875 307.027344 462.761719 307.28125 461.65625 307.570312 C 460.550781 307.855469 459.457031 308.179688 458.371094 308.539062 C 457.289062 308.894531 456.214844 309.289062 455.15625 309.714844 C 454.097656 310.140625 453.050781 310.597656 452.023438 311.089844 C 450.992188 311.582031 449.976562 312.105469 448.980469 312.660156 C 447.984375 313.214844 447.003906 313.804688 446.042969 314.421875 C 445.082031 315.039062 444.144531 315.6875 443.226562 316.363281 C 442.304688 317.042969 441.410156 317.746094 440.535156 318.480469 C 439.660156 319.214844 438.808594 319.976562 437.984375 320.765625 C 437.160156 321.550781 436.359375 322.363281 435.582031 323.203125 C 434.808594 324.042969 434.0625 324.902344 433.339844 325.789062 C 432.621094 326.675781 431.929688 327.582031 431.269531 328.511719 C 430.605469 329.441406 429.972656 330.390625 429.371094 331.363281 C 428.769531 332.332031 428.199219 333.320312 427.65625 334.324219 C 427.117188 335.328125 426.609375 336.351562 426.136719 337.390625 C 425.660156 338.425781 425.21875 339.480469 424.8125 340.542969 C 424.402344 341.609375 424.027344 342.6875 423.6875 343.777344 C 423.347656 344.867188 423.042969 345.964844 422.773438 347.074219 C 422.503906 348.183594 422.269531 349.300781 422.070312 350.421875 C 421.871094 351.546875 421.707031 352.675781 421.578125 353.808594 C 421.449219 354.941406 421.355469 356.078125 421.300781 357.21875 C 421.246094 358.359375 421.226562 359.5 421.242188 360.640625 C 421.257812 361.78125 421.308594 362.921875 421.398438 364.058594 C 421.488281 365.195312 421.613281 366.332031 421.773438 367.460938 C 421.933594 368.589844 422.128906 369.714844 422.359375 370.832031 C 422.589844 371.949219 422.859375 373.058594 423.160156 374.160156 C 423.460938 375.257812 423.796875 376.347656 424.167969 377.429688 C 413.3125 388.222656 407.820312 398.785156 405.59375 412.945312 C 402.15625 435.015625 407.40625 454.996094 420.890625 471.253906 C 420.027344 471.882812 419.183594 472.535156 418.359375 473.210938 C 417.535156 473.886719 416.730469 474.585938 415.945312 475.308594 C 415.160156 476.03125 414.398438 476.773438 413.65625 477.539062 C 412.914062 478.304688 412.191406 479.09375 411.496094 479.898438 C 410.796875 480.707031 410.125 481.53125 409.476562 482.378906 C 408.824219 483.222656 408.199219 484.085938 407.597656 484.96875 C 407 485.847656 406.425781 486.746094 405.875 487.660156 C 405.324219 488.574219 404.804688 489.503906 404.308594 490.449219 C 403.8125 491.390625 403.34375 492.347656 402.902344 493.320312 C 402.460938 494.289062 402.046875 495.273438 401.664062 496.265625 C 401.277344 497.261719 400.921875 498.265625 400.59375 499.28125 C 400.269531 500.296875 399.96875 501.320312 399.699219 502.351562 C 399.433594 503.382812 399.191406 504.421875 398.984375 505.464844 C 398.773438 506.511719 398.59375 507.5625 398.445312 508.617188 C 398.296875 509.671875 398.179688 510.730469 398.089844 511.792969 C 398 512.855469 397.941406 513.921875 397.914062 514.988281 C 397.886719 516.050781 397.890625 517.117188 397.925781 518.183594 C 397.957031 519.25 398.023438 520.3125 398.117188 521.375 C 398.210938 522.4375 398.335938 523.496094 398.488281 524.550781 C 398.644531 525.605469 398.828125 526.652344 399.042969 527.699219 C 399.261719 528.742188 399.503906 529.78125 399.777344 530.808594 C 400.054688 531.839844 400.355469 532.863281 400.691406 533.875 C 401.023438 534.886719 401.382812 535.890625 401.773438 536.882812 C 402.164062 537.875 402.582031 538.855469 403.03125 539.824219 C 403.476562 540.789062 403.949219 541.746094 404.449219 542.6875 C 404.953125 543.628906 405.480469 544.554688 406.035156 545.464844 C 406.585938 546.375 407.167969 547.269531 407.773438 548.148438 C 408.378906 549.027344 409.007812 549.886719 409.660156 550.726562 C 410.316406 551.570312 410.996094 552.394531 411.695312 553.195312 C 412.398438 554 413.121094 554.78125 413.867188 555.542969 C 414.613281 556.304688 415.382812 557.042969 416.171875 557.761719 C 416.960938 558.480469 417.769531 559.175781 418.597656 559.847656 C 417.546875 561.246094 416.554688 562.6875 415.625 564.167969 C 414.691406 565.648438 413.824219 567.167969 413.015625 568.71875 C 412.210938 570.273438 411.46875 571.855469 410.792969 573.472656 C 410.117188 575.085938 409.507812 576.722656 408.964844 578.386719 C 408.421875 580.050781 407.953125 581.734375 407.550781 583.4375 C 407.144531 585.140625 406.8125 586.855469 406.554688 588.585938 C 406.292969 590.316406 406.101562 592.054688 405.984375 593.800781 C 405.867188 595.546875 405.820312 597.292969 405.84375 599.042969 C 405.871094 600.792969 405.96875 602.539062 406.136719 604.28125 C 406.308594 606.023438 406.546875 607.753906 406.859375 609.476562 C 407.171875 611.199219 407.554688 612.902344 408.007812 614.59375 C 408.460938 616.285156 408.980469 617.953125 409.570312 619.601562 C 410.160156 621.246094 410.816406 622.867188 411.542969 624.460938 C 412.265625 626.054688 413.050781 627.617188 413.90625 629.144531 C 414.757812 630.671875 415.667969 632.164062 416.644531 633.617188 C 417.621094 635.070312 418.652344 636.480469 419.742188 637.851562 C 419.105469 638.484375 418.484375 639.136719 417.882812 639.804688 C 417.277344 640.472656 416.691406 641.152344 416.125 641.851562 C 415.554688 642.546875 415.003906 643.257812 414.472656 643.984375 C 413.941406 644.710938 413.425781 645.449219 412.933594 646.199219 C 412.4375 646.953125 411.960938 647.714844 411.507812 648.492188 C 411.050781 649.265625 410.617188 650.054688 410.203125 650.851562 C 409.785156 651.652344 409.390625 652.457031 409.019531 653.277344 C 408.644531 654.09375 408.292969 654.921875 407.960938 655.757812 C 407.628906 656.59375 407.320312 657.441406 407.03125 658.292969 C 406.746094 659.144531 406.480469 660.003906 406.234375 660.867188 C 405.992188 661.734375 405.769531 662.605469 405.570312 663.484375 C 405.371094 664.359375 405.195312 665.242188 405.039062 666.128906 C 404.886719 667.015625 404.753906 667.902344 404.644531 668.796875 C 404.539062 669.691406 404.453125 670.585938 404.390625 671.480469 C 404.328125 672.378906 404.285156 673.277344 404.269531 674.175781 C 404.253906 675.074219 404.257812 675.976562 404.289062 676.875 C 404.316406 677.773438 404.371094 678.671875 404.445312 679.566406 C 404.519531 680.464844 404.621094 681.355469 404.742188 682.25 C 404.863281 683.140625 405.007812 684.027344 405.171875 684.910156 C 405.339844 685.792969 405.527344 686.675781 405.738281 687.546875 C 405.953125 688.421875 406.1875 689.289062 406.441406 690.152344 C 406.699219 691.015625 406.976562 691.871094 407.277344 692.71875 C 407.574219 693.566406 407.898438 694.40625 408.242188 695.238281 C 408.582031 696.070312 408.949219 696.890625 409.332031 697.703125 C 409.71875 698.515625 410.125 699.320312 410.550781 700.113281 C 410.976562 700.90625 411.421875 701.683594 411.886719 702.453125 C 412.355469 703.222656 412.839844 703.980469 413.34375 704.726562 C 413.851562 705.46875 414.375 706.203125 414.917969 706.917969 C 415.457031 707.636719 416.019531 708.339844 416.597656 709.027344 C 417.175781 709.71875 417.773438 710.390625 418.386719 711.050781 C 419 711.710938 419.628906 712.351562 420.273438 712.976562 C 420.917969 713.605469 421.582031 714.214844 422.257812 714.804688 C 422.9375 715.398438 423.628906 715.972656 424.335938 716.53125 C 425.039062 717.089844 425.761719 717.625 426.496094 718.148438 C 427.230469 718.667969 427.976562 719.167969 428.738281 719.652344 C 429.496094 720.132812 430.269531 720.59375 431.050781 721.039062 C 431.835938 721.480469 432.628906 721.902344 433.433594 722.304688 C 434.242188 722.707031 435.054688 723.085938 435.878906 723.449219 C 436.703125 723.808594 437.539062 724.148438 438.378906 724.464844 C 439.222656 724.78125 440.074219 725.078125 440.929688 725.351562 C 441.785156 725.625 442.652344 725.878906 443.519531 726.109375 C 444.390625 726.335938 445.265625 726.546875 446.148438 726.730469 C 447.027344 726.914062 447.914062 727.078125 448.800781 727.21875 C 449.691406 727.359375 450.582031 727.476562 451.480469 727.570312 C 452.375 727.664062 453.269531 727.734375 454.167969 727.78125 C 455.070312 727.832031 455.96875 727.855469 456.867188 727.859375 C 457.769531 727.859375 458.667969 727.839844 459.566406 727.796875 C 460.464844 727.753906 461.363281 727.6875 462.257812 727.597656 C 463.15625 727.507812 464.046875 727.394531 464.9375 727.257812 C 465.828125 727.125 466.710938 726.964844 467.59375 726.785156 C 468.476562 726.605469 469.351562 726.402344 470.222656 726.175781 C 471.09375 725.953125 471.960938 725.703125 472.820312 725.433594 C 473.679688 725.164062 474.527344 724.871094 475.371094 724.558594 C 476.214844 724.246094 477.050781 723.910156 477.878906 723.554688 C 478.703125 723.199219 479.523438 722.824219 480.328125 722.425781 C 481.136719 722.027344 481.933594 721.609375 482.71875 721.171875 C 483.503906 720.730469 484.277344 720.273438 485.042969 719.796875 C 485.804688 719.316406 486.554688 718.820312 487.289062 718.304688 C 488.027344 717.789062 488.75 717.253906 489.460938 716.699219 C 490.167969 716.144531 490.863281 715.574219 491.542969 714.984375 C 492.226562 714.394531 492.890625 713.789062 493.539062 713.167969 C 494.1875 712.542969 494.820312 711.90625 495.4375 711.25 C 496.054688 710.59375 496.652344 709.921875 497.234375 709.238281 C 497.816406 708.550781 498.382812 707.851562 498.925781 707.136719 C 504.378906 709.1875 510.015625 710.179688 515.839844 710.101562 C 517.054688 710.101562 518.304688 710.101562 519.578125 710 C 521.015625 709.917969 522.445312 709.769531 523.871094 709.558594 C 525.292969 709.347656 526.707031 709.074219 528.105469 708.734375 C 529.507812 708.398438 530.890625 708 532.253906 707.539062 C 533.617188 707.078125 534.960938 706.558594 536.277344 705.980469 C 537.59375 705.402344 538.882812 704.761719 540.144531 704.070312 C 541.40625 703.375 542.632812 702.625 543.828125 701.820312 C 545.023438 701.015625 546.179688 700.160156 547.296875 699.253906 C 548.414062 698.347656 549.488281 697.390625 550.523438 696.390625 C 551.554688 695.386719 552.542969 694.339844 553.480469 693.25 C 554.417969 692.15625 555.308594 691.027344 556.144531 689.855469 C 556.984375 688.6875 557.769531 687.480469 558.5 686.242188 C 559.230469 685 559.90625 683.730469 560.523438 682.433594 C 561.140625 681.132812 561.699219 679.808594 562.195312 678.457031 C 562.695312 677.105469 563.132812 675.738281 563.511719 674.347656 C 563.886719 672.960938 564.203125 671.558594 564.453125 670.140625 C 564.703125 668.722656 564.890625 667.296875 565.015625 665.863281 C 572.75 664.957031 580.164062 662.90625 587.261719 659.710938 C 591.550781 657.78125 595.609375 655.449219 599.4375 652.714844 C 603.265625 649.980469 606.789062 646.898438 610.003906 643.46875 C 613.222656 640.039062 616.074219 636.324219 618.554688 632.332031 C 621.039062 628.335938 623.105469 624.140625 624.753906 619.734375 C 625.097656 619.65625 625.441406 619.597656 625.785156 619.507812 C 627.566406 619.054688 629.320312 618.515625 631.046875 617.894531 C 632.777344 617.269531 634.46875 616.5625 636.125 615.769531 C 637.785156 614.980469 639.398438 614.109375 640.972656 613.164062 C 642.542969 612.214844 644.066406 611.191406 645.539062 610.089844 C 647.011719 608.992188 648.425781 607.824219 649.78125 606.589844 C 651.136719 605.351562 652.433594 604.050781 653.660156 602.6875 C 654.890625 601.324219 656.050781 599.902344 657.140625 598.425781 C 658.230469 596.945312 659.242188 595.417969 660.183594 593.839844 C 661.121094 592.265625 661.980469 590.644531 662.761719 588.984375 C 663.542969 587.320312 664.238281 585.625 664.851562 583.894531 C 665.464844 582.164062 665.992188 580.410156 666.433594 578.625 C 666.875 576.84375 667.226562 575.046875 667.492188 573.230469 C 667.753906 571.414062 667.929688 569.585938 668.015625 567.753906 C 668.097656 565.921875 668.09375 564.085938 668 562.253906 C 667.902344 560.421875 667.71875 558.597656 667.441406 556.78125 C 667.167969 554.96875 666.804688 553.167969 666.351562 551.390625 C 664.683594 544.773438 661.902344 538.664062 658.003906 533.058594 C 679.640625 515.675781 687.578125 484.636719 675.8125 461.480469 Z M 648.410156 586.773438 C 646.988281 589.160156 645.351562 591.382812 643.492188 593.445312 C 641.632812 595.507812 639.589844 597.367188 637.363281 599.023438 C 635.132812 600.683594 632.765625 602.105469 630.253906 603.292969 C 627.746094 604.484375 625.144531 605.414062 622.449219 606.089844 C 621.085938 606.433594 619.710938 606.707031 618.332031 606.925781 C 615.933594 607.300781 613.523438 607.464844 611.097656 607.417969 C 608.667969 607.375 606.265625 607.121094 603.882812 606.660156 C 601.5 606.195312 599.175781 605.53125 596.90625 604.667969 C 594.640625 603.804688 592.464844 602.75 590.378906 601.507812 C 589.992188 601.277344 589.585938 601.089844 589.160156 600.941406 C 588.734375 600.792969 588.300781 600.6875 587.855469 600.625 C 587.410156 600.5625 586.960938 600.542969 586.511719 600.566406 C 586.0625 600.59375 585.621094 600.660156 585.183594 600.773438 C 584.746094 600.886719 584.324219 601.039062 583.921875 601.230469 C 583.515625 601.425781 583.132812 601.660156 582.769531 601.929688 C 582.410156 602.199219 582.078125 602.5 581.777344 602.832031 C 581.476562 603.167969 581.210938 603.527344 580.980469 603.914062 C 580.75 604.300781 580.558594 604.707031 580.410156 605.128906 C 580.257812 605.554688 580.152344 605.988281 580.085938 606.433594 C 580.019531 606.878906 580 607.324219 580.019531 607.773438 C 580.042969 608.222656 580.109375 608.667969 580.21875 609.105469 C 580.328125 609.539062 580.480469 609.960938 580.671875 610.367188 C 580.863281 610.773438 581.09375 611.160156 581.359375 611.519531 C 581.628906 611.882812 581.929688 612.214844 582.261719 612.515625 C 582.59375 612.820312 582.953125 613.085938 583.339844 613.320312 C 587.246094 615.652344 591.375 617.476562 595.726562 618.800781 C 600.078125 620.121094 604.527344 620.898438 609.070312 621.132812 C 607.585938 623.980469 605.875 626.683594 603.941406 629.246094 C 602.011719 631.804688 599.878906 634.191406 597.550781 636.402344 C 595.222656 638.613281 592.730469 640.613281 590.070312 642.410156 C 587.410156 644.207031 584.621094 645.773438 581.699219 647.109375 C 576.59375 649.457031 571.257812 651.039062 565.695312 651.859375 C 560.132812 652.675781 554.566406 652.695312 549 651.921875 C 548.550781 651.855469 548.101562 651.832031 547.648438 651.851562 C 547.199219 651.875 546.75 651.941406 546.3125 652.050781 C 545.875 652.160156 545.449219 652.308594 545.039062 652.503906 C 544.628906 652.695312 544.242188 652.925781 543.878906 653.195312 C 543.515625 653.464844 543.183594 653.765625 542.878906 654.101562 C 542.574219 654.433594 542.304688 654.796875 542.070312 655.183594 C 541.839844 655.570312 541.644531 655.976562 541.492188 656.402344 C 541.339844 656.828125 541.230469 657.265625 541.160156 657.710938 C 541.09375 658.160156 541.070312 658.609375 541.09375 659.0625 C 541.117188 659.511719 541.179688 659.957031 541.289062 660.398438 C 541.398438 660.835938 541.550781 661.261719 541.742188 661.667969 C 541.9375 662.078125 542.167969 662.464844 542.4375 662.828125 C 542.707031 663.191406 543.007812 663.523438 543.34375 663.828125 C 543.679688 664.132812 544.039062 664.402344 544.425781 664.636719 C 544.816406 664.867188 545.222656 665.0625 545.648438 665.214844 C 546.074219 665.367188 546.511719 665.476562 546.957031 665.542969 C 548.367188 665.761719 549.777344 665.910156 551.199219 666.035156 C 551.074219 667.03125 550.902344 668.015625 550.691406 668.992188 C 550.480469 669.96875 550.226562 670.9375 549.929688 671.894531 C 549.632812 672.847656 549.296875 673.789062 548.917969 674.71875 C 548.539062 675.644531 548.121094 676.554688 547.664062 677.445312 C 547.210938 678.335938 546.714844 679.203125 546.183594 680.050781 C 545.652344 680.898438 545.082031 681.722656 544.480469 682.519531 C 543.875 683.320312 543.238281 684.089844 542.570312 684.835938 C 541.898438 685.578125 541.195312 686.289062 540.464844 686.972656 C 539.734375 687.65625 538.972656 688.304688 538.183594 688.921875 C 537.394531 689.539062 536.582031 690.121094 535.742188 690.667969 C 534.902344 691.214844 534.042969 691.722656 533.160156 692.195312 C 532.277344 692.667969 531.375 693.097656 530.453125 693.492188 C 529.53125 693.886719 528.597656 694.238281 527.644531 694.550781 C 526.695312 694.863281 525.730469 695.136719 524.753906 695.363281 C 523.78125 695.59375 522.796875 695.78125 521.808594 695.925781 C 520.816406 696.070312 519.820312 696.171875 518.820312 696.226562 C 514.488281 696.570312 510.230469 696.160156 506.046875 694.992188 C 507.011719 692.695312 507.804688 690.34375 508.433594 687.933594 C 508.566406 687.488281 508.652344 687.039062 508.695312 686.578125 C 508.734375 686.117188 508.730469 685.65625 508.679688 685.195312 C 508.628906 684.738281 508.53125 684.289062 508.386719 683.847656 C 508.246094 683.40625 508.0625 682.988281 507.835938 682.582031 C 507.605469 682.179688 507.339844 681.804688 507.039062 681.457031 C 506.734375 681.105469 506.398438 680.789062 506.03125 680.507812 C 505.667969 680.226562 505.273438 679.984375 504.859375 679.78125 C 504.441406 679.578125 504.011719 679.421875 503.5625 679.304688 C 503.113281 679.1875 502.660156 679.121094 502.199219 679.09375 C 501.734375 679.070312 501.277344 679.09375 500.816406 679.164062 C 500.359375 679.230469 499.914062 679.34375 499.480469 679.503906 C 499.046875 679.664062 498.632812 679.863281 498.238281 680.105469 C 497.84375 680.347656 497.476562 680.628906 497.140625 680.941406 C 496.800781 681.257812 496.5 681.605469 496.230469 681.984375 C 495.964844 682.359375 495.734375 682.761719 495.550781 683.183594 C 495.363281 683.605469 495.21875 684.042969 495.121094 684.496094 C 494.175781 688.140625 492.734375 691.578125 490.796875 694.808594 L 490.613281 695.105469 C 490.613281 695.105469 490.613281 695.105469 490.613281 695.164062 C 490.242188 695.769531 489.855469 696.367188 489.453125 696.949219 C 489.050781 697.535156 488.632812 698.109375 488.195312 698.671875 C 487.761719 699.234375 487.3125 699.785156 486.847656 700.324219 C 486.382812 700.863281 485.902344 701.386719 485.410156 701.898438 C 484.914062 702.410156 484.40625 702.910156 483.886719 703.394531 C 483.367188 703.878906 482.832031 704.347656 482.285156 704.800781 C 481.738281 705.257812 481.179688 705.695312 480.609375 706.121094 C 480.039062 706.546875 479.457031 706.953125 478.863281 707.347656 C 478.269531 707.738281 477.667969 708.113281 477.054688 708.472656 C 476.441406 708.832031 475.816406 709.175781 475.183594 709.5 C 474.550781 709.828125 473.910156 710.136719 473.261719 710.425781 C 472.613281 710.714844 471.957031 710.988281 471.292969 711.242188 C 470.625 711.496094 469.957031 711.734375 469.277344 711.949219 C 468.601562 712.167969 467.917969 712.367188 467.230469 712.546875 C 466.542969 712.726562 465.851562 712.890625 465.152344 713.03125 C 464.457031 713.175781 463.757812 713.296875 463.050781 713.402344 C 462.347656 713.507812 461.644531 713.589844 460.933594 713.65625 C 460.226562 713.722656 459.515625 713.769531 458.804688 713.796875 C 458.09375 713.820312 457.382812 713.828125 456.671875 713.816406 C 455.960938 713.804688 455.25 713.773438 454.539062 713.722656 C 453.832031 713.671875 453.125 713.601562 452.417969 713.511719 C 451.710938 713.421875 451.007812 713.3125 450.308594 713.183594 C 449.609375 713.054688 448.914062 712.910156 448.222656 712.742188 C 447.53125 712.578125 446.84375 712.390625 446.164062 712.1875 C 445.480469 711.984375 444.804688 711.761719 444.136719 711.519531 C 443.46875 711.28125 442.804688 711.019531 442.148438 710.746094 C 441.496094 710.46875 440.847656 710.171875 440.207031 709.859375 C 439.570312 709.546875 438.941406 709.21875 438.320312 708.871094 C 437.699219 708.523438 437.085938 708.160156 436.484375 707.78125 C 435.882812 707.402344 435.292969 707.003906 434.714844 706.589844 C 434.136719 706.179688 433.566406 705.75 433.011719 705.308594 C 432.457031 704.863281 431.914062 704.40625 431.382812 703.933594 C 430.851562 703.457031 430.332031 702.972656 429.828125 702.46875 C 429.324219 701.96875 428.835938 701.453125 428.359375 700.925781 C 427.882812 700.394531 427.421875 699.855469 426.976562 699.300781 C 426.53125 698.746094 426.101562 698.183594 425.683594 697.605469 C 425.269531 697.027344 424.871094 696.441406 424.488281 695.839844 C 424.105469 695.242188 423.738281 694.632812 423.386719 694.011719 C 423.039062 693.394531 422.707031 692.765625 422.390625 692.128906 C 422.074219 691.492188 421.777344 690.847656 421.5 690.191406 C 421.21875 689.539062 420.957031 688.878906 420.710938 688.210938 C 420.46875 687.542969 420.242188 686.867188 420.039062 686.1875 C 419.832031 685.507812 419.640625 684.824219 419.472656 684.132812 C 419.304688 683.441406 419.152344 682.746094 419.023438 682.046875 C 418.890625 681.351562 418.78125 680.648438 418.6875 679.941406 C 418.59375 679.238281 418.519531 678.53125 418.46875 677.824219 C 418.414062 677.113281 418.378906 676.402344 418.363281 675.695312 C 418.347656 674.984375 418.351562 674.273438 418.375 673.5625 C 418.398438 672.851562 418.445312 672.140625 418.507812 671.433594 C 418.570312 670.726562 418.652344 670.019531 418.753906 669.316406 C 418.855469 668.613281 418.972656 667.914062 419.113281 667.214844 C 419.253906 666.519531 419.414062 665.824219 419.589844 665.136719 C 419.769531 664.449219 419.964844 663.765625 420.179688 663.089844 C 420.394531 662.410156 420.628906 661.738281 420.878906 661.074219 C 421.132812 660.410156 421.402344 659.753906 421.6875 659.101562 C 421.976562 658.453125 422.28125 657.808594 422.605469 657.175781 C 422.929688 656.542969 423.269531 655.917969 423.625 655.304688 C 423.984375 654.691406 424.355469 654.085938 424.746094 653.492188 C 425.136719 652.898438 425.542969 652.3125 425.964844 651.742188 C 426.386719 651.167969 426.828125 650.609375 427.277344 650.0625 C 427.730469 649.511719 428.199219 648.976562 428.683594 648.453125 C 429.164062 647.933594 429.660156 647.421875 430.171875 646.929688 C 430.679688 646.433594 431.203125 645.953125 431.742188 645.484375 C 432.277344 645.019531 432.828125 644.566406 433.386719 644.128906 C 433.671875 643.949219 433.9375 643.746094 434.191406 643.523438 C 438.292969 640.457031 442.824219 638.292969 447.789062 637.027344 C 448.234375 636.921875 448.664062 636.773438 449.078125 636.582031 C 449.492188 636.394531 449.886719 636.164062 450.253906 635.894531 C 450.625 635.628906 450.964844 635.324219 451.273438 634.988281 C 451.582031 634.652344 451.855469 634.289062 452.089844 633.902344 C 452.328125 633.511719 452.523438 633.101562 452.679688 632.671875 C 452.835938 632.242188 452.945312 631.804688 453.015625 631.351562 C 453.082031 630.902344 453.105469 630.445312 453.082031 629.992188 C 453.058594 629.535156 452.992188 629.085938 452.878906 628.644531 C 452.765625 628.203125 452.609375 627.773438 452.414062 627.363281 C 452.214844 626.953125 451.980469 626.5625 451.707031 626.199219 C 451.429688 625.835938 451.125 625.5 450.78125 625.199219 C 450.441406 624.894531 450.074219 624.628906 449.679688 624.398438 C 449.285156 624.167969 448.871094 623.980469 448.441406 623.832031 C 448.007812 623.683594 447.566406 623.578125 447.113281 623.519531 C 446.660156 623.460938 446.207031 623.445312 445.75 623.476562 C 445.296875 623.503906 444.847656 623.582031 444.40625 623.699219 C 439.546875 624.953125 434.960938 626.863281 430.648438 629.429688 C 429.769531 628.335938 428.941406 627.210938 428.160156 626.050781 C 427.378906 624.890625 426.648438 623.699219 425.96875 622.476562 C 425.285156 621.253906 424.65625 620.003906 424.082031 618.730469 C 423.503906 617.453125 422.984375 616.15625 422.515625 614.835938 C 422.046875 613.519531 421.636719 612.183594 421.28125 610.828125 C 420.925781 609.476562 420.628906 608.109375 420.386719 606.730469 C 420.148438 605.351562 419.964844 603.964844 419.84375 602.574219 C 419.71875 601.179688 419.652344 599.78125 419.648438 598.382812 C 419.640625 596.984375 419.691406 595.585938 419.804688 594.191406 C 419.914062 592.796875 420.085938 591.410156 420.3125 590.027344 C 420.539062 588.648438 420.824219 587.28125 421.167969 585.921875 C 421.507812 584.566406 421.910156 583.226562 422.363281 581.902344 C 422.820312 580.578125 423.328125 579.277344 423.894531 577.996094 C 424.457031 576.71875 425.074219 575.460938 425.746094 574.234375 C 426.414062 573.003906 427.136719 571.804688 427.90625 570.636719 C 428.675781 569.46875 429.496094 568.335938 430.359375 567.238281 C 434.054688 568.960938 437.890625 570.261719 441.871094 571.144531 C 445.851562 572.027344 449.878906 572.464844 453.957031 572.460938 C 454.410156 572.460938 454.855469 572.417969 455.300781 572.328125 C 455.742188 572.242188 456.171875 572.109375 456.589844 571.9375 C 457.007812 571.765625 457.402344 571.554688 457.78125 571.304688 C 458.15625 571.050781 458.503906 570.765625 458.820312 570.449219 C 459.140625 570.128906 459.425781 569.78125 459.679688 569.40625 C 459.929688 569.03125 460.140625 568.632812 460.3125 568.21875 C 460.488281 567.800781 460.617188 567.371094 460.703125 566.929688 C 460.792969 566.484375 460.835938 566.039062 460.835938 565.585938 C 460.835938 565.136719 460.792969 564.6875 460.703125 564.246094 C 460.617188 563.804688 460.488281 563.371094 460.3125 562.957031 C 460.140625 562.539062 459.929688 562.144531 459.679688 561.765625 C 459.425781 561.390625 459.140625 561.042969 458.820312 560.726562 C 458.503906 560.40625 458.15625 560.121094 457.78125 559.871094 C 457.402344 559.621094 457.007812 559.410156 456.589844 559.234375 C 456.171875 559.0625 455.742188 558.933594 455.300781 558.84375 C 454.855469 558.757812 454.410156 558.710938 453.957031 558.710938 C 452.558594 558.734375 451.160156 558.6875 449.769531 558.574219 C 448.375 558.457031 446.988281 558.273438 445.613281 558.019531 C 444.238281 557.769531 442.875 557.445312 441.53125 557.058594 C 440.1875 556.671875 438.867188 556.21875 437.566406 555.699219 C 436.269531 555.179688 434.996094 554.597656 433.757812 553.953125 C 432.515625 553.308594 431.308594 552.601562 430.136719 551.839844 C 428.964844 551.074219 427.835938 550.253906 426.746094 549.375 C 425.65625 548.5 424.613281 547.570312 423.617188 546.589844 C 422.617188 545.609375 421.671875 544.582031 420.777344 543.507812 C 419.882812 542.433594 419.042969 541.316406 418.257812 540.160156 C 417.472656 539.003906 416.746094 537.808594 416.082031 536.578125 C 415.414062 535.347656 414.8125 534.089844 414.269531 532.800781 C 413.730469 531.511719 413.253906 530.199219 412.84375 528.859375 C 412.433594 527.523438 412.089844 526.171875 411.816406 524.800781 C 411.539062 523.429688 411.332031 522.046875 411.195312 520.65625 C 411.054688 519.265625 410.984375 517.871094 410.984375 516.472656 C 410.984375 515.074219 411.054688 513.679688 411.195312 512.289062 C 411.332031 510.898438 411.539062 509.515625 411.816406 508.144531 C 412.089844 506.777344 412.433594 505.421875 412.84375 504.085938 C 413.253906 502.75 413.730469 501.4375 414.269531 500.144531 C 414.8125 498.855469 415.414062 497.597656 416.082031 496.367188 C 416.746094 495.136719 417.472656 493.945312 418.257812 492.785156 C 419.042969 491.628906 419.882812 490.511719 420.777344 489.4375 C 421.671875 488.363281 422.617188 487.335938 423.617188 486.355469 C 424.613281 485.375 425.65625 484.449219 426.746094 483.570312 C 427.835938 482.695312 428.964844 481.875 430.136719 481.109375 C 431.308594 480.34375 432.515625 479.640625 433.757812 478.992188 C 434.996094 478.347656 436.269531 477.765625 437.566406 477.246094 C 438.867188 476.730469 440.1875 476.273438 441.53125 475.886719 C 442.875 475.5 444.238281 475.179688 445.613281 474.925781 C 446.988281 474.671875 448.375 474.488281 449.769531 474.375 C 451.160156 474.257812 452.558594 474.210938 453.957031 474.234375 C 454.410156 474.234375 454.855469 474.191406 455.300781 474.101562 C 455.742188 474.015625 456.171875 473.882812 456.589844 473.710938 C 457.007812 473.539062 457.402344 473.328125 457.78125 473.074219 C 458.15625 472.824219 458.503906 472.539062 458.820312 472.222656 C 459.140625 471.902344 459.425781 471.554688 459.679688 471.179688 C 459.929688 470.804688 460.140625 470.40625 460.3125 469.992188 C 460.488281 469.574219 460.617188 469.144531 460.703125 468.699219 C 460.792969 468.257812 460.835938 467.8125 460.835938 467.359375 C 460.835938 466.910156 460.792969 466.460938 460.703125 466.019531 C 460.617188 465.574219 460.488281 465.144531 460.3125 464.730469 C 460.140625 464.3125 459.929688 463.914062 459.679688 463.539062 C 459.425781 463.164062 459.140625 462.816406 458.820312 462.5 C 458.503906 462.179688 458.15625 461.894531 457.78125 461.644531 C 457.402344 461.394531 457.007812 461.179688 456.589844 461.007812 C 456.171875 460.835938 455.742188 460.707031 455.300781 460.617188 C 454.855469 460.527344 454.410156 460.484375 453.957031 460.484375 C 446.78125 460.484375 439.863281 461.816406 433.203125 464.484375 C 421.074219 450.953125 416.234375 433.996094 419.203125 415.125 C 419.808594 410.527344 421.09375 406.132812 423.0625 401.9375 C 425.035156 397.742188 427.597656 393.945312 430.75 390.546875 C 432.8125 393.523438 435.148438 396.269531 437.757812 398.785156 C 438.082031 399.097656 438.433594 399.378906 438.8125 399.621094 C 439.191406 399.867188 439.59375 400.070312 440.011719 400.238281 C 440.433594 400.402344 440.867188 400.527344 441.3125 400.605469 C 441.753906 400.6875 442.203125 400.722656 442.65625 400.714844 C 443.105469 400.707031 443.554688 400.65625 443.996094 400.5625 C 444.4375 400.464844 444.863281 400.328125 445.277344 400.148438 C 445.691406 399.96875 446.085938 399.75 446.457031 399.492188 C 446.828125 399.234375 447.171875 398.945312 447.484375 398.621094 C 447.800781 398.292969 448.078125 397.941406 448.324219 397.5625 C 448.566406 397.183594 448.773438 396.785156 448.9375 396.363281 C 449.105469 395.945312 449.226562 395.511719 449.308594 395.066406 C 449.386719 394.621094 449.425781 394.175781 449.417969 393.722656 C 449.410156 393.273438 449.359375 392.824219 449.261719 392.386719 C 449.167969 391.945312 449.027344 391.515625 448.847656 391.101562 C 448.667969 390.6875 448.449219 390.296875 448.191406 389.925781 C 447.933594 389.554688 447.644531 389.210938 447.320312 388.898438 C 446.359375 387.984375 445.445312 387.023438 444.578125 386.019531 C 443.714844 385.015625 442.898438 383.972656 442.136719 382.886719 C 441.375 381.804688 440.667969 380.683594 440.015625 379.53125 C 439.363281 378.375 438.769531 377.191406 438.234375 375.980469 C 437.699219 374.769531 437.226562 373.53125 436.8125 372.273438 C 436.398438 371.011719 436.050781 369.734375 435.761719 368.441406 C 435.476562 367.148438 435.253906 365.84375 435.09375 364.527344 C 434.9375 363.210938 434.84375 361.890625 434.816406 360.566406 C 434.789062 359.242188 434.828125 357.917969 434.929688 356.597656 C 435.03125 355.277344 435.199219 353.964844 435.433594 352.660156 C 435.664062 351.355469 435.960938 350.0625 436.320312 348.789062 C 436.683594 347.511719 437.105469 346.257812 437.585938 345.023438 C 438.070312 343.789062 438.617188 342.582031 439.21875 341.402344 C 439.820312 340.222656 440.480469 339.074219 441.199219 337.960938 C 441.914062 336.84375 442.683594 335.765625 443.507812 334.726562 C 444.332031 333.6875 445.203125 332.691406 446.125 331.738281 C 447.046875 330.785156 448.011719 329.878906 449.023438 329.023438 C 450.03125 328.164062 451.082031 327.359375 452.171875 326.601562 C 453.265625 325.847656 454.390625 325.148438 455.546875 324.507812 C 456.707031 323.863281 457.894531 323.277344 459.113281 322.753906 C 460.332031 322.226562 461.570312 321.761719 462.832031 321.355469 C 464.097656 320.953125 465.375 320.613281 466.671875 320.335938 C 467.96875 320.054688 469.277344 319.84375 470.59375 319.695312 C 471.914062 319.546875 473.234375 319.460938 474.5625 319.445312 C 475.886719 319.425781 477.210938 319.472656 478.53125 319.585938 C 479.855469 319.695312 481.167969 319.875 482.472656 320.113281 C 483.773438 320.355469 485.0625 320.660156 486.335938 321.03125 C 487.613281 321.398438 488.863281 321.828125 490.09375 322.320312 C 491.328125 322.8125 492.53125 323.367188 493.707031 323.976562 C 494.882812 324.585938 496.027344 325.253906 497.140625 325.980469 C 498.25 326.703125 499.324219 327.480469 500.359375 328.308594 C 501.390625 329.136719 502.382812 330.015625 503.328125 330.945312 C 503.65625 331.257812 504.007812 331.535156 504.386719 331.78125 C 504.769531 332.023438 505.167969 332.230469 505.589844 332.394531 C 506.011719 332.5625 506.441406 332.683594 506.886719 332.765625 C 507.332031 332.84375 507.78125 332.878906 508.234375 332.871094 C 508.683594 332.863281 509.132812 332.8125 509.574219 332.71875 C 510.015625 332.621094 510.441406 332.484375 510.859375 332.300781 C 511.273438 332.121094 511.664062 331.902344 512.035156 331.644531 C 512.40625 331.386719 512.75 331.097656 513.066406 330.773438 C 513.378906 330.445312 513.65625 330.09375 513.902344 329.714844 C 514.148438 329.335938 514.351562 328.933594 514.515625 328.515625 C 514.683594 328.09375 514.804688 327.660156 514.886719 327.21875 C 514.964844 326.773438 515.003906 326.324219 514.996094 325.871094 C 514.988281 325.421875 514.933594 324.976562 514.839844 324.535156 C 514.742188 324.09375 514.605469 323.664062 514.425781 323.25 C 514.242188 322.835938 514.023438 322.441406 513.765625 322.070312 C 513.507812 321.699219 513.21875 321.359375 512.894531 321.042969 C 508.363281 316.613281 503.210938 313.089844 497.4375 310.480469 C 513.351562 297.476562 535.410156 295.929688 551.097656 299.101562 C 558.503906 300.847656 565.535156 303.570312 572.183594 307.273438 C 567.609375 309.421875 563.40625 312.140625 559.570312 315.429688 C 559.207031 315.71875 558.878906 316.039062 558.582031 316.394531 C 558.285156 316.746094 558.027344 317.128906 557.808594 317.535156 C 557.585938 317.941406 557.410156 318.363281 557.273438 318.804688 C 557.140625 319.25 557.050781 319.699219 557.007812 320.160156 C 556.964844 320.621094 556.964844 321.078125 557.015625 321.539062 C 557.066406 321.996094 557.160156 322.449219 557.300781 322.886719 C 557.4375 323.328125 557.621094 323.75 557.847656 324.152344 C 558.070312 324.558594 558.335938 324.933594 558.636719 325.285156 C 558.9375 325.636719 559.269531 325.953125 559.636719 326.234375 C 560 326.519531 560.390625 326.765625 560.804688 326.96875 C 561.21875 327.175781 561.648438 327.335938 562.097656 327.453125 C 562.542969 327.570312 562.996094 327.644531 563.460938 327.671875 C 563.921875 327.699219 564.378906 327.679688 564.839844 327.613281 C 565.296875 327.546875 565.742188 327.433594 566.175781 327.28125 C 566.613281 327.125 567.027344 326.925781 567.421875 326.6875 C 567.820312 326.445312 568.1875 326.171875 568.527344 325.855469 C 569.476562 325.042969 570.464844 324.269531 571.488281 323.542969 C 572.507812 322.8125 573.558594 322.132812 574.640625 321.5 C 575.722656 320.863281 576.832031 320.28125 577.96875 319.742188 C 579.101562 319.207031 580.257812 318.722656 581.433594 318.289062 C 582.613281 317.859375 583.804688 317.476562 585.015625 317.152344 C 586.226562 316.824219 587.453125 316.550781 588.6875 316.335938 C 589.921875 316.117188 591.164062 315.953125 592.414062 315.847656 C 593.664062 315.738281 594.917969 315.6875 596.171875 315.691406 C 597.425781 315.695312 598.679688 315.753906 599.929688 315.871094 C 601.175781 315.988281 602.417969 316.15625 603.652344 316.382812 C 604.886719 316.609375 606.109375 316.890625 607.316406 317.222656 C 608.527344 317.558594 609.71875 317.945312 610.894531 318.386719 C 612.066406 318.824219 613.21875 319.316406 614.351562 319.859375 C 615.480469 320.402344 616.585938 320.996094 617.664062 321.636719 C 618.742188 322.277344 619.789062 322.964844 620.804688 323.699219 C 621.824219 324.433594 622.804688 325.210938 623.753906 326.035156 C 624.699219 326.855469 625.609375 327.71875 626.480469 328.621094 C 627.351562 329.523438 628.179688 330.460938 628.964844 331.4375 C 629.753906 332.414062 630.496094 333.425781 631.191406 334.46875 C 631.890625 335.507812 632.539062 336.582031 633.140625 337.679688 C 633.742188 338.78125 634.292969 339.90625 634.796875 341.054688 C 635.296875 342.203125 635.746094 343.371094 636.144531 344.5625 C 636.542969 345.75 636.886719 346.953125 637.175781 348.175781 C 637.464844 349.394531 637.703125 350.625 637.882812 351.863281 C 638.0625 353.105469 638.1875 354.351562 638.257812 355.601562 C 638.328125 356.855469 638.339844 358.109375 638.300781 359.359375 C 638.257812 360.613281 638.160156 361.863281 638.007812 363.105469 C 637.851562 364.351562 637.644531 365.585938 637.382812 366.8125 C 637.117188 368.039062 636.800781 369.25 636.429688 370.445312 C 636.058594 371.644531 635.636719 372.824219 635.160156 373.984375 C 634.683594 375.140625 634.15625 376.277344 633.578125 377.390625 C 633.003906 378.503906 632.375 379.589844 631.703125 380.648438 C 631.429688 381.027344 631.195312 381.429688 631.003906 381.855469 C 630.8125 382.28125 630.664062 382.722656 630.5625 383.179688 C 630.460938 383.636719 630.40625 384.101562 630.398438 384.566406 C 630.390625 385.035156 630.429688 385.5 630.519531 385.957031 C 630.605469 386.417969 630.738281 386.863281 630.917969 387.296875 C 631.097656 387.730469 631.316406 388.140625 631.578125 388.527344 C 631.839844 388.914062 632.140625 389.269531 632.472656 389.597656 C 632.808594 389.925781 633.175781 390.214844 633.566406 390.464844 C 633.960938 390.71875 634.378906 390.925781 634.816406 391.09375 C 635.253906 391.261719 635.703125 391.382812 636.164062 391.460938 C 636.625 391.535156 637.089844 391.5625 637.558594 391.542969 C 638.027344 391.527344 638.488281 391.460938 638.941406 391.347656 C 639.394531 391.234375 639.832031 391.074219 640.253906 390.875 C 640.675781 390.671875 641.074219 390.429688 641.445312 390.144531 C 641.820312 389.859375 642.160156 389.542969 642.464844 389.191406 C 642.773438 388.835938 643.042969 388.457031 643.273438 388.050781 C 646.882812 382.390625 649.386719 376.28125 650.78125 369.71875 C 653.171875 372.433594 655.339844 375.316406 657.296875 378.359375 C 659.25 381.402344 660.964844 384.578125 662.441406 387.878906 C 663.921875 391.179688 665.140625 394.574219 666.109375 398.058594 C 667.074219 401.542969 667.777344 405.082031 668.210938 408.671875 C 669.707031 421.859375 668.902344 434.90625 665.800781 447.8125 C 664.699219 446.710938 663.554688 445.660156 662.363281 444.652344 C 661.175781 443.648438 659.945312 442.695312 658.675781 441.789062 C 657.40625 440.886719 656.101562 440.039062 654.761719 439.242188 C 653.421875 438.449219 652.050781 437.710938 650.648438 437.03125 C 649.246094 436.351562 647.820312 435.726562 646.367188 435.167969 C 644.914062 434.605469 643.4375 434.101562 641.945312 433.664062 C 640.449219 433.222656 638.9375 432.847656 637.414062 432.535156 C 635.886719 432.21875 634.347656 431.96875 632.800781 431.785156 C 631.253906 431.597656 629.703125 431.476562 628.144531 431.417969 C 626.589844 431.363281 625.03125 431.371094 623.476562 431.441406 C 621.917969 431.515625 620.367188 431.652344 618.820312 431.851562 C 617.277344 432.054688 615.742188 432.320312 614.21875 432.648438 C 612.695312 432.976562 611.191406 433.367188 609.699219 433.824219 C 608.207031 434.277344 606.738281 434.792969 605.292969 435.367188 C 603.84375 435.945312 602.421875 436.582031 601.027344 437.273438 C 599.632812 437.96875 598.269531 438.722656 596.9375 439.527344 C 596.550781 439.761719 596.191406 440.035156 595.859375 440.339844 C 595.527344 440.644531 595.226562 440.980469 594.960938 441.34375 C 594.695312 441.707031 594.464844 442.09375 594.277344 442.503906 C 594.085938 442.914062 593.9375 443.339844 593.832031 443.777344 C 593.722656 444.214844 593.660156 444.660156 593.640625 445.109375 C 593.621094 445.5625 593.648438 446.011719 593.71875 446.457031 C 593.785156 446.902344 593.898438 447.335938 594.054688 447.761719 C 594.210938 448.183594 594.40625 448.589844 594.640625 448.976562 C 594.875 449.363281 595.144531 449.71875 595.449219 450.054688 C 595.753906 450.386719 596.089844 450.683594 596.457031 450.949219 C 596.820312 451.21875 597.207031 451.445312 597.617188 451.636719 C 598.027344 451.824219 598.449219 451.972656 598.890625 452.082031 C 599.328125 452.1875 599.773438 452.25 600.226562 452.269531 C 600.675781 452.289062 601.125 452.261719 601.570312 452.195312 C 602.019531 452.125 602.453125 452.011719 602.878906 451.859375 C 603.300781 451.703125 603.707031 451.507812 604.09375 451.273438 C 605.277344 450.554688 606.496094 449.898438 607.746094 449.300781 C 608.992188 448.703125 610.269531 448.164062 611.570312 447.691406 C 612.875 447.21875 614.195312 446.8125 615.539062 446.464844 C 616.878906 446.121094 618.234375 445.84375 619.605469 445.632812 C 620.972656 445.421875 622.347656 445.277344 623.734375 445.203125 C 625.117188 445.125 626.5 445.117188 627.882812 445.175781 C 629.269531 445.234375 630.644531 445.363281 632.019531 445.554688 C 633.390625 445.75 634.75 446.011719 636.09375 446.335938 C 637.441406 446.664062 638.769531 447.054688 640.074219 447.511719 C 641.382812 447.96875 642.664062 448.488281 643.921875 449.070312 C 645.179688 449.65625 646.40625 450.296875 647.597656 451 C 648.792969 451.703125 649.949219 452.460938 651.070312 453.277344 C 652.1875 454.09375 653.265625 454.960938 654.300781 455.882812 C 655.332031 456.800781 656.320312 457.773438 657.261719 458.789062 C 658.199219 459.808594 659.085938 460.867188 659.921875 461.972656 C 660.757812 463.078125 661.535156 464.21875 662.257812 465.402344 C 672.980469 482.976562 666.457031 509.042969 648.808594 522.839844 C 646.285156 520.644531 643.582031 518.691406 640.703125 516.984375 C 640.316406 516.753906 639.910156 516.566406 639.484375 516.417969 C 639.058594 516.269531 638.625 516.164062 638.179688 516.101562 C 637.734375 516.039062 637.285156 516.019531 636.835938 516.046875 C 636.386719 516.070312 635.945312 516.140625 635.507812 516.25 C 635.070312 516.363281 634.652344 516.515625 634.246094 516.710938 C 633.839844 516.90625 633.457031 517.136719 633.097656 517.40625 C 632.734375 517.675781 632.40625 517.976562 632.105469 518.3125 C 631.804688 518.644531 631.539062 519.007812 631.308594 519.390625 C 631.078125 519.777344 630.886719 520.183594 630.734375 520.609375 C 630.585938 521.03125 630.476562 521.464844 630.410156 521.910156 C 630.347656 522.355469 630.324219 522.800781 630.347656 523.25 C 630.371094 523.699219 630.433594 524.144531 630.542969 524.578125 C 630.652344 525.015625 630.804688 525.4375 630.996094 525.84375 C 631.1875 526.25 631.417969 526.636719 631.6875 526.996094 C 631.953125 527.359375 632.253906 527.691406 632.585938 527.992188 C 632.917969 528.296875 633.277344 528.5625 633.664062 528.796875 C 637.230469 530.914062 640.421875 533.496094 643.238281 536.542969 L 643.363281 536.691406 C 644.117188 537.523438 644.839844 538.386719 645.523438 539.273438 C 646.210938 540.164062 646.859375 541.082031 647.472656 542.023438 C 648.085938 542.964844 648.664062 543.929688 649.199219 544.917969 C 649.734375 545.902344 650.230469 546.910156 650.6875 547.9375 C 651.144531 548.964844 651.558594 550.007812 651.933594 551.066406 C 652.304688 552.128906 652.636719 553.199219 652.925781 554.285156 C 653.210938 555.375 653.457031 556.46875 653.65625 557.574219 C 653.859375 558.679688 654.015625 559.792969 654.128906 560.910156 C 654.238281 562.027344 654.308594 563.148438 654.332031 564.273438 C 654.355469 565.394531 654.332031 566.515625 654.265625 567.640625 C 654.199219 568.761719 654.089844 569.878906 653.933594 570.992188 C 653.78125 572.105469 653.582031 573.207031 653.335938 574.304688 C 653.09375 575.402344 652.808594 576.488281 652.480469 577.5625 C 652.148438 578.636719 651.777344 579.695312 651.363281 580.742188 C 650.949219 581.785156 650.496094 582.8125 650 583.820312 C 649.503906 584.828125 648.972656 585.816406 648.398438 586.785156 Z M 648.410156 586.773438 " fill-opacity="1" fill-rule="nonzero"/><path fill="#000000" d="M 626.269531 479.8125 C 625.921875 479.523438 625.550781 479.265625 625.15625 479.046875 C 624.761719 478.828125 624.347656 478.652344 623.917969 478.515625 C 623.488281 478.375 623.046875 478.28125 622.597656 478.230469 C 622.148438 478.179688 621.699219 478.175781 621.25 478.210938 C 620.796875 478.25 620.355469 478.332031 619.921875 478.457031 C 619.488281 478.582031 619.070312 478.746094 618.667969 478.953125 C 618.265625 479.160156 617.890625 479.40625 617.535156 479.6875 C 617.183594 479.96875 616.859375 480.28125 616.566406 480.628906 C 614.09375 483.570312 611.359375 486.238281 608.355469 488.640625 C 605.351562 491.039062 602.144531 493.121094 598.726562 494.882812 C 595.3125 496.644531 591.757812 498.054688 588.058594 499.113281 C 584.363281 500.171875 580.601562 500.859375 576.769531 501.171875 C 571.132812 501.644531 565.546875 501.3125 560.007812 500.175781 L 559.535156 500.082031 C 554.839844 499.078125 550.335938 497.515625 546.027344 495.394531 C 541.714844 493.273438 537.730469 490.65625 534.070312 487.546875 C 533.726562 487.257812 533.355469 487 532.960938 486.78125 C 532.566406 486.5625 532.152344 486.382812 531.722656 486.246094 C 531.292969 486.109375 530.851562 486.015625 530.402344 485.960938 C 529.953125 485.910156 529.503906 485.90625 529.054688 485.941406 C 528.605469 485.980469 528.160156 486.058594 527.726562 486.183594 C 527.292969 486.308594 526.875 486.472656 526.472656 486.679688 C 526.070312 486.886719 525.691406 487.132812 525.339844 487.410156 C 524.984375 487.691406 524.664062 488.003906 524.371094 488.351562 C 524.078125 488.695312 523.824219 489.066406 523.601562 489.460938 C 523.382812 489.855469 523.207031 490.265625 523.066406 490.695312 C 522.929688 491.128906 522.835938 491.566406 522.785156 492.015625 C 522.730469 492.464844 522.726562 492.914062 522.761719 493.363281 C 522.800781 493.8125 522.878906 494.253906 523.003906 494.6875 C 523.128906 495.125 523.296875 495.542969 523.5 495.941406 C 523.707031 496.34375 523.953125 496.722656 524.234375 497.074219 C 524.515625 497.429688 524.828125 497.75 525.171875 498.042969 C 529.082031 501.355469 533.300781 504.21875 537.824219 506.632812 C 542.347656 509.050781 547.074219 510.960938 552.003906 512.367188 C 552.355469 515.101562 552.9375 517.785156 553.753906 520.417969 C 554.570312 523.050781 555.605469 525.597656 556.859375 528.050781 C 558.113281 530.507812 559.570312 532.835938 561.226562 535.042969 C 562.882812 537.246094 564.714844 539.292969 566.726562 541.183594 C 568.992188 543.316406 571.441406 545.222656 574.070312 546.890625 C 576.703125 548.5625 579.464844 549.96875 582.363281 551.109375 C 585.261719 552.253906 588.242188 553.113281 591.304688 553.6875 C 594.367188 554.261719 597.457031 554.542969 600.574219 554.53125 L 601.640625 554.53125 C 602.089844 554.519531 602.539062 554.46875 602.980469 554.371094 C 603.421875 554.273438 603.847656 554.136719 604.261719 553.953125 C 604.675781 553.773438 605.070312 553.554688 605.441406 553.292969 C 605.8125 553.035156 606.152344 552.742188 606.464844 552.417969 C 606.78125 552.09375 607.058594 551.738281 607.300781 551.359375 C 607.542969 550.976562 607.75 550.578125 607.914062 550.15625 C 608.078125 549.734375 608.199219 549.300781 608.277344 548.855469 C 608.355469 548.410156 608.390625 547.964844 608.382812 547.511719 C 608.375 547.058594 608.320312 546.613281 608.222656 546.171875 C 608.125 545.730469 607.984375 545.304688 607.804688 544.890625 C 607.621094 544.476562 607.402344 544.085938 607.140625 543.714844 C 606.882812 543.34375 606.589844 543.003906 606.265625 542.691406 C 605.9375 542.378906 605.582031 542.101562 605.203125 541.855469 C 604.820312 541.613281 604.417969 541.410156 604 541.246094 C 603.578125 541.082031 603.144531 540.960938 602.699219 540.882812 C 602.253906 540.804688 601.804688 540.769531 601.351562 540.78125 C 599.035156 540.847656 596.738281 540.683594 594.453125 540.296875 C 592.167969 539.90625 589.945312 539.300781 587.78125 538.472656 C 585.617188 537.648438 583.550781 536.617188 581.589844 535.382812 C 579.628906 534.148438 577.808594 532.738281 576.128906 531.144531 C 573.785156 528.949219 571.792969 526.472656 570.144531 523.714844 C 568.5 520.957031 567.269531 518.023438 566.449219 514.921875 C 568.179688 515.046875 569.890625 515.128906 571.691406 515.128906 C 573.742188 515.128906 575.792969 515.046875 577.859375 514.875 C 582.59375 514.492188 587.246094 513.644531 591.816406 512.335938 C 596.382812 511.03125 600.78125 509.289062 605.003906 507.109375 C 609.226562 504.933594 613.191406 502.359375 616.90625 499.394531 C 620.617188 496.429688 624.003906 493.132812 627.058594 489.496094 C 627.351562 489.152344 627.605469 488.78125 627.824219 488.390625 C 628.042969 487.996094 628.222656 487.582031 628.359375 487.152344 C 628.5 486.722656 628.59375 486.285156 628.644531 485.835938 C 628.695312 485.390625 628.703125 484.941406 628.667969 484.492188 C 628.632812 484.042969 628.550781 483.601562 628.425781 483.167969 C 628.304688 482.734375 628.140625 482.316406 627.933594 481.914062 C 627.726562 481.511719 627.484375 481.136719 627.203125 480.78125 C 626.921875 480.429688 626.613281 480.105469 626.269531 479.8125 Z M 626.269531 479.8125 " fill-opacity="1" fill-rule="nonzero"/><path fill="#000000" d="M 526.171875 424.910156 C 530.78125 425.957031 535.453125 426.484375 540.183594 426.488281 C 545.660156 426.488281 551.050781 425.792969 556.347656 424.40625 C 556.800781 424.304688 557.238281 424.164062 557.660156 423.976562 C 558.085938 423.789062 558.484375 423.5625 558.863281 423.296875 C 559.238281 423.027344 559.585938 422.726562 559.902344 422.386719 C 560.21875 422.050781 560.5 421.683594 560.742188 421.289062 C 560.984375 420.898438 561.183594 420.484375 561.34375 420.046875 C 561.503906 419.613281 561.617188 419.167969 561.683594 418.710938 C 561.753906 418.253906 561.777344 417.792969 561.753906 417.332031 C 561.726562 416.871094 561.660156 416.414062 561.542969 415.96875 C 561.425781 415.519531 561.265625 415.089844 561.066406 414.671875 C 560.863281 414.257812 560.621094 413.867188 560.335938 413.5 C 560.054688 413.132812 559.738281 412.796875 559.390625 412.496094 C 559.039062 412.191406 558.664062 411.925781 558.261719 411.699219 C 557.859375 411.472656 557.4375 411.289062 556.996094 411.144531 C 556.554688 411.003906 556.105469 410.90625 555.644531 410.855469 C 555.1875 410.804688 554.726562 410.800781 554.265625 410.839844 C 553.804688 410.882812 553.351562 410.96875 552.910156 411.101562 C 551.320312 411.515625 549.714844 411.851562 548.09375 412.109375 C 546.472656 412.363281 544.84375 412.542969 543.203125 412.636719 C 541.566406 412.734375 539.925781 412.75 538.285156 412.6875 C 536.644531 412.625 535.011719 412.480469 533.386719 412.253906 C 531.757812 412.03125 530.148438 411.726562 528.550781 411.34375 C 526.957031 410.960938 525.382812 410.503906 523.832031 409.964844 C 522.277344 409.429688 520.757812 408.820312 519.265625 408.132812 C 517.773438 407.445312 516.320312 406.691406 514.90625 405.859375 C 513.488281 405.03125 512.113281 404.136719 510.785156 403.171875 C 509.457031 402.210938 508.179688 401.183594 506.949219 400.097656 C 505.722656 399.007812 504.550781 397.863281 503.433594 396.65625 C 502.320312 395.453125 501.265625 394.199219 500.273438 392.894531 C 499.28125 391.585938 498.355469 390.234375 497.496094 388.835938 C 496.636719 387.4375 495.847656 386.003906 495.128906 384.527344 C 494.410156 383.050781 493.765625 381.546875 493.195312 380.007812 C 492.625 378.46875 492.132812 376.90625 491.714844 375.320312 C 491.589844 374.898438 491.421875 374.492188 491.21875 374.101562 C 491.015625 373.710938 490.773438 373.34375 490.5 373 C 490.222656 372.65625 489.917969 372.339844 489.582031 372.054688 C 489.246094 371.769531 488.886719 371.519531 488.503906 371.304688 C 488.121094 371.085938 487.71875 370.910156 487.300781 370.769531 C 486.882812 370.628906 486.457031 370.53125 486.019531 370.476562 C 485.582031 370.417969 485.144531 370.402344 484.703125 370.429688 C 484.261719 370.457031 483.832031 370.527344 483.402344 370.636719 C 482.976562 370.746094 482.5625 370.894531 482.167969 371.085938 C 481.769531 371.273438 481.390625 371.5 481.039062 371.761719 C 480.683594 372.023438 480.355469 372.316406 480.058594 372.640625 C 479.761719 372.964844 479.496094 373.3125 479.265625 373.6875 C 479.035156 374.0625 478.839844 374.457031 478.6875 374.871094 C 478.53125 375.28125 478.417969 375.707031 478.34375 376.140625 C 478.269531 376.574219 478.238281 377.011719 478.246094 377.453125 C 478.257812 377.890625 478.308594 378.328125 478.402344 378.757812 C 478.976562 380.949219 479.664062 383.105469 480.46875 385.226562 C 481.273438 387.347656 482.1875 389.417969 483.210938 391.4375 C 484.234375 393.460938 485.363281 395.421875 486.597656 397.324219 C 487.832031 399.226562 489.164062 401.058594 490.59375 402.816406 C 492.023438 404.578125 493.542969 406.257812 495.152344 407.855469 C 496.761719 409.453125 498.453125 410.960938 500.222656 412.375 C 501.992188 413.792969 503.832031 415.113281 505.742188 416.335938 C 507.652344 417.554688 509.625 418.671875 511.65625 419.683594 C 507.410156 422.957031 502.667969 425.148438 497.425781 426.261719 C 488.964844 428.046875 480.855469 426.558594 474.609375 422.078125 C 474.242188 421.800781 473.851562 421.558594 473.4375 421.355469 C 473.023438 421.15625 472.59375 420.996094 472.148438 420.882812 C 471.703125 420.765625 471.25 420.695312 470.789062 420.671875 C 470.332031 420.648438 469.871094 420.667969 469.417969 420.738281 C 468.960938 420.804688 468.515625 420.917969 468.085938 421.074219 C 467.652344 421.230469 467.238281 421.425781 466.84375 421.667969 C 466.453125 421.90625 466.085938 422.183594 465.75 422.496094 C 465.410156 422.808594 465.109375 423.152344 464.839844 423.523438 C 464.570312 423.898438 464.339844 424.296875 464.152344 424.714844 C 463.964844 425.132812 463.816406 425.570312 463.714844 426.019531 C 463.613281 426.464844 463.558594 426.921875 463.546875 427.378906 C 463.535156 427.839844 463.574219 428.296875 463.652344 428.75 C 463.734375 429.203125 463.859375 429.644531 464.03125 430.070312 C 464.199219 430.5 464.410156 430.90625 464.664062 431.292969 C 464.914062 431.675781 465.199219 432.035156 465.523438 432.359375 C 465.847656 432.6875 466.199219 432.980469 466.582031 433.238281 C 470.070312 435.722656 473.855469 437.605469 477.941406 438.886719 C 482.023438 440.171875 486.207031 440.792969 490.488281 440.753906 C 493.785156 440.75 497.046875 440.402344 500.269531 439.710938 C 505.257812 438.664062 509.960938 436.878906 514.386719 434.347656 C 518.808594 431.820312 522.738281 428.675781 526.171875 424.910156 Z M 526.171875 424.910156 " fill-opacity="1" fill-rule="nonzero"/><path fill="#000000" d="M 494.84375 577.355469 C 495.523438 577.578125 496.21875 577.6875 496.933594 577.6875 C 497.664062 577.6875 498.375 577.574219 499.070312 577.347656 C 499.761719 577.121094 500.40625 576.792969 500.996094 576.363281 C 501.582031 575.929688 502.09375 575.421875 502.519531 574.828125 C 502.945312 574.234375 503.269531 573.59375 503.492188 572.898438 C 504.394531 570.097656 505.011719 567.238281 505.34375 564.3125 C 505.671875 561.390625 505.710938 558.464844 505.453125 555.535156 C 505.195312 552.601562 504.648438 549.726562 503.816406 546.90625 C 502.980469 544.085938 501.875 541.375 500.496094 538.777344 C 499.128906 536.171875 497.515625 533.722656 495.664062 531.4375 C 493.8125 529.148438 491.757812 527.0625 489.496094 525.175781 C 487.230469 523.292969 484.808594 521.648438 482.222656 520.238281 C 479.636719 518.832031 476.9375 517.6875 474.125 516.8125 C 473.699219 516.683594 473.261719 516.59375 472.816406 516.550781 C 472.371094 516.507812 471.925781 516.503906 471.480469 516.546875 C 471.035156 516.589844 470.597656 516.675781 470.167969 516.800781 C 469.742188 516.929688 469.328125 517.097656 468.933594 517.304688 C 468.535156 517.511719 468.164062 517.757812 467.816406 518.039062 C 467.46875 518.320312 467.148438 518.628906 466.863281 518.972656 C 466.574219 519.316406 466.324219 519.683594 466.105469 520.074219 C 465.890625 520.464844 465.714844 520.875 465.578125 521.300781 C 465.441406 521.726562 465.347656 522.160156 465.296875 522.605469 C 465.246094 523.046875 465.238281 523.492188 465.273438 523.9375 C 465.3125 524.382812 465.390625 524.824219 465.511719 525.253906 C 465.632812 525.683594 465.792969 526.097656 465.996094 526.496094 C 466.199219 526.894531 466.4375 527.269531 466.710938 527.625 C 466.988281 527.976562 467.292969 528.296875 467.632812 528.589844 C 467.96875 528.882812 468.332031 529.140625 468.722656 529.363281 C 469.109375 529.582031 469.515625 529.765625 469.941406 529.90625 C 471.894531 530.519531 473.773438 531.3125 475.570312 532.289062 C 477.367188 533.269531 479.054688 534.414062 480.628906 535.722656 C 482.203125 537.03125 483.632812 538.480469 484.921875 540.070312 C 486.210938 541.660156 487.332031 543.359375 488.285156 545.167969 C 489.238281 546.964844 490 548.832031 490.574219 550.78125 C 491.148438 552.726562 491.523438 554.710938 491.703125 556.734375 C 491.878906 558.753906 491.855469 560.773438 491.625 562.792969 C 491.398438 564.808594 490.972656 566.78125 490.351562 568.714844 C 490.214844 569.144531 490.121094 569.585938 490.070312 570.035156 C 490.019531 570.484375 490.015625 570.933594 490.054688 571.386719 C 490.09375 571.835938 490.175781 572.277344 490.300781 572.714844 C 490.425781 573.148438 490.59375 573.566406 490.804688 573.964844 C 491.011719 574.367188 491.257812 574.746094 491.542969 575.097656 C 491.824219 575.449219 492.140625 575.773438 492.488281 576.0625 C 492.832031 576.351562 493.207031 576.605469 493.601562 576.824219 C 494 577.042969 494.414062 577.21875 494.84375 577.355469 Z M 494.84375 577.355469 " fill-opacity="1" fill-rule="nonzero"/><path fill="#000000" d="M 563.847656 386.925781 C 565.996094 387.289062 568.160156 387.472656 570.335938 387.476562 C 571.5 387.46875 572.65625 387.410156 573.8125 387.300781 C 574.972656 387.191406 576.121094 387.03125 577.261719 386.820312 C 578.40625 386.609375 579.535156 386.347656 580.65625 386.039062 C 581.777344 385.730469 582.878906 385.375 583.96875 384.96875 C 585.054688 384.5625 586.125 384.109375 587.171875 383.609375 C 588.222656 383.109375 589.246094 382.566406 590.25 381.976562 C 591.25 381.386719 592.222656 380.757812 593.167969 380.082031 C 594.113281 379.40625 595.027344 378.695312 595.910156 377.941406 C 596.792969 377.183594 597.644531 376.394531 598.457031 375.566406 C 599.269531 374.738281 600.046875 373.875 600.785156 372.976562 C 601.523438 372.082031 602.21875 371.15625 602.878906 370.199219 C 603.535156 369.238281 604.148438 368.257812 604.71875 367.246094 C 605.289062 366.234375 605.816406 365.199219 606.292969 364.140625 C 606.773438 363.085938 607.207031 362.007812 607.59375 360.914062 C 607.980469 359.820312 608.316406 358.710938 608.605469 357.585938 C 608.894531 356.460938 609.132812 355.324219 609.320312 354.179688 C 609.386719 353.738281 609.410156 353.296875 609.390625 352.851562 C 609.371094 352.40625 609.308594 351.964844 609.199219 351.53125 C 609.09375 351.097656 608.949219 350.679688 608.761719 350.277344 C 608.574219 349.871094 608.347656 349.488281 608.085938 349.128906 C 607.824219 348.765625 607.53125 348.433594 607.203125 348.128906 C 606.878906 347.828125 606.523438 347.558594 606.144531 347.320312 C 605.765625 347.085938 605.367188 346.890625 604.949219 346.730469 C 604.53125 346.574219 604.105469 346.457031 603.664062 346.382812 C 603.222656 346.308594 602.78125 346.277344 602.335938 346.289062 C 601.890625 346.300781 601.449219 346.355469 601.011719 346.453125 C 600.578125 346.550781 600.15625 346.691406 599.746094 346.871094 C 599.339844 347.050781 598.953125 347.265625 598.585938 347.523438 C 598.21875 347.777344 597.878906 348.066406 597.570312 348.386719 C 597.261719 348.707031 596.984375 349.054688 596.742188 349.429688 C 596.5 349.800781 596.296875 350.195312 596.128906 350.609375 C 595.964844 351.023438 595.839844 351.449219 595.757812 351.890625 C 595.621094 352.726562 595.445312 353.554688 595.230469 354.375 C 595.011719 355.191406 594.757812 356 594.460938 356.792969 C 594.164062 357.589844 593.832031 358.367188 593.457031 359.128906 C 593.085938 359.890625 592.675781 360.632812 592.230469 361.351562 C 591.789062 362.074219 591.308594 362.773438 590.792969 363.449219 C 590.28125 364.121094 589.734375 364.769531 589.15625 365.390625 C 588.582031 366.011719 587.972656 366.605469 587.339844 367.164062 C 586.703125 367.726562 586.042969 368.257812 585.355469 368.753906 C 584.667969 369.25 583.957031 369.710938 583.226562 370.140625 C 582.492188 370.566406 581.742188 370.957031 580.96875 371.308594 C 580.199219 371.664062 579.414062 371.980469 578.609375 372.253906 C 577.808594 372.53125 576.996094 372.769531 576.171875 372.964844 C 575.34375 373.160156 574.511719 373.316406 573.671875 373.433594 C 572.832031 373.546875 571.988281 373.621094 571.140625 373.652344 C 570.292969 373.683594 569.445312 373.675781 568.597656 373.625 C 567.75 373.574219 566.910156 373.484375 566.070312 373.347656 C 565.628906 373.28125 565.1875 373.261719 564.742188 373.28125 C 564.296875 373.300781 563.855469 373.363281 563.421875 373.46875 C 562.988281 373.574219 562.570312 373.722656 562.164062 373.910156 C 561.757812 374.097656 561.375 374.320312 561.015625 374.582031 C 560.652344 374.84375 560.320312 375.136719 560.015625 375.464844 C 559.710938 375.792969 559.441406 376.144531 559.207031 376.523438 C 558.972656 376.902344 558.777344 377.300781 558.617188 377.714844 C 558.460938 378.132812 558.34375 378.5625 558.269531 379.003906 C 558.195312 379.441406 558.164062 379.882812 558.175781 380.332031 C 558.1875 380.777344 558.242188 381.214844 558.339844 381.652344 C 558.4375 382.085938 558.578125 382.507812 558.757812 382.917969 C 558.9375 383.324219 559.152344 383.710938 559.410156 384.078125 C 559.664062 384.445312 559.953125 384.78125 560.273438 385.089844 C 560.59375 385.402344 560.941406 385.675781 561.316406 385.917969 C 561.691406 386.160156 562.085938 386.367188 562.5 386.53125 C 562.914062 386.695312 563.339844 386.820312 563.777344 386.902344 Z M 563.847656 386.925781 " fill-opacity="1" fill-rule="nonzero"/><path fill="#000000" d="M 503.582031 629.246094 C 502.273438 629.132812 500.960938 629.085938 499.648438 629.101562 C 498.332031 629.121094 497.023438 629.199219 495.71875 629.34375 C 494.410156 629.492188 493.117188 629.699219 491.832031 629.972656 C 490.546875 630.242188 489.277344 630.578125 488.023438 630.976562 C 486.769531 631.371094 485.542969 631.828125 484.332031 632.347656 C 483.125 632.863281 481.945312 633.441406 480.796875 634.074219 C 479.644531 634.707031 478.527344 635.394531 477.445312 636.140625 C 476.359375 636.882812 475.316406 637.675781 474.3125 638.523438 C 473.304688 639.367188 472.34375 640.261719 471.425781 641.199219 C 470.507812 642.140625 469.640625 643.125 468.820312 644.148438 C 468 645.171875 467.230469 646.238281 466.511719 647.335938 C 465.796875 648.4375 465.136719 649.570312 464.53125 650.738281 C 463.925781 651.902344 463.378906 653.09375 462.890625 654.3125 C 462.402344 655.535156 461.976562 656.773438 461.613281 658.035156 C 461.246094 659.296875 460.941406 660.570312 460.703125 661.863281 C 460.460938 663.152344 460.285156 664.453125 460.171875 665.761719 C 460.132812 666.210938 460.140625 666.660156 460.1875 667.109375 C 460.238281 667.558594 460.332031 667.996094 460.46875 668.425781 C 460.605469 668.855469 460.78125 669.269531 461 669.664062 C 461.21875 670.058594 461.472656 670.429688 461.761719 670.773438 C 462.054688 671.121094 462.375 671.433594 462.726562 671.714844 C 463.078125 671.996094 463.457031 672.242188 463.855469 672.449219 C 464.257812 672.65625 464.675781 672.824219 465.109375 672.949219 C 465.542969 673.078125 465.984375 673.160156 466.433594 673.199219 L 467.027344 673.199219 C 467.457031 673.199219 467.882812 673.160156 468.300781 673.082031 C 468.722656 673.007812 469.132812 672.890625 469.535156 672.734375 C 469.933594 672.582031 470.3125 672.390625 470.679688 672.167969 C 471.042969 671.941406 471.382812 671.683594 471.699219 671.394531 C 472.015625 671.105469 472.300781 670.789062 472.558594 670.449219 C 472.8125 670.105469 473.035156 669.742188 473.226562 669.359375 C 473.414062 668.976562 473.566406 668.578125 473.683594 668.164062 C 473.796875 667.753906 473.871094 667.332031 473.910156 666.90625 C 473.984375 666.046875 474.097656 665.195312 474.257812 664.34375 C 474.414062 663.496094 474.613281 662.660156 474.855469 661.832031 C 475.09375 661 475.375 660.1875 475.695312 659.386719 C 476.015625 658.585938 476.375 657.800781 476.773438 657.035156 C 477.171875 656.269531 477.605469 655.523438 478.078125 654.800781 C 478.546875 654.078125 479.050781 653.378906 479.59375 652.707031 C 480.132812 652.03125 480.703125 651.386719 481.304688 650.769531 C 481.910156 650.152344 482.539062 649.566406 483.199219 649.007812 C 483.863281 648.453125 484.546875 647.933594 485.261719 647.445312 C 485.972656 646.957031 486.707031 646.503906 487.460938 646.085938 C 488.21875 645.671875 488.992188 645.292969 489.789062 644.953125 C 490.582031 644.613281 491.390625 644.3125 492.210938 644.050781 C 493.035156 643.789062 493.867188 643.570312 494.714844 643.390625 C 495.558594 643.210938 496.410156 643.074219 497.269531 642.980469 C 498.125 642.882812 498.988281 642.832031 499.851562 642.820312 C 500.714844 642.808594 501.574219 642.839844 502.4375 642.914062 C 502.886719 642.953125 503.339844 642.949219 503.789062 642.898438 C 504.242188 642.847656 504.683594 642.753906 505.117188 642.613281 C 505.546875 642.476562 505.964844 642.300781 506.359375 642.078125 C 506.757812 641.859375 507.128906 641.605469 507.476562 641.3125 C 507.824219 641.019531 508.136719 640.695312 508.421875 640.339844 C 508.703125 639.988281 508.949219 639.609375 509.15625 639.203125 C 509.367188 638.800781 509.53125 638.382812 509.65625 637.945312 C 509.78125 637.511719 509.863281 637.066406 509.902344 636.613281 C 509.941406 636.164062 509.933594 635.710938 509.882812 635.261719 C 509.828125 634.808594 509.734375 634.367188 509.597656 633.9375 C 509.457031 633.503906 509.277344 633.089844 509.058594 632.695312 C 508.839844 632.296875 508.582031 631.925781 508.289062 631.582031 C 507.996094 631.234375 507.671875 630.921875 507.316406 630.636719 C 506.960938 630.355469 506.578125 630.113281 506.175781 629.90625 C 505.773438 629.699219 505.351562 629.53125 504.914062 629.40625 C 504.480469 629.28125 504.035156 629.203125 503.582031 629.164062 Z M 503.582031 629.246094 " fill-opacity="1" fill-rule="nonzero"/></svg>